<svg width="80" height="80" viewBox="0 0 80 80" fill="none" xmlns="http://www.w3.org/2000/svg">
<path d="M3.70332 44.4653C2.12224 41.6984 2.12224 38.3016 3.70332 35.5348L17.989 10.5348C19.5914 7.73057 22.5735 6 25.8032 6L54.1968 6C57.4265 6 60.4086 7.73057 62.011 10.5347L76.2967 35.5347C77.8778 38.3016 77.8778 41.6984 76.2967 44.4652L62.011 69.4652C60.4086 72.2694 57.4265 74 54.1968 74L25.8032 74C22.5735 74 19.5914 72.2694 17.989 69.4652L3.70332 44.4653Z" stroke="#2FC9B9" stroke-width="2"/>
<path fill-rule="evenodd" clip-rule="evenodd" d="M35 40C35 40.5523 34.5523 41 34 41C33.4477 41 33 40.5523 33 40C33 39.4477 33.4477 39 34 39C34.5523 39 35 39.4477 35 40ZM41 40C41 40.5523 40.5523 41 40 41C39.4477 41 39 40.5523 39 40C39 39.4477 39.4477 39 40 39C40.5523 39 41 39.4477 41 40ZM46 41C46.5523 41 47 40.5523 47 40C47 39.4477 46.5523 39 46 39C45.4477 39 45 39.4477 45 40C45 40.5523 45.4477 41 46 41Z" fill="#2FC9B9"/>
<path d="M58 39.4461C58 30.3415 50.7921 23 41.9487 23H38.0513C29.2078 23 22 30.3415 22 39.4461C22 48.5508 29.2078 55.8923 38.0513 55.8923H41.9487C42.5071 55.8923 43.0588 55.863 43.6023 55.806L43.6149 55.8047C45.1373 55.645 46.2946 55.5236 47.1485 55.4505C47.9747 55.3798 48.61 55.3444 49.0324 55.3884C49.7611 55.4642 50.5626 55.7226 51.8533 56.1388C51.8975 56.1531 51.9422 56.1675 51.9875 56.1821L54.3055 56.9292C55.3666 57.2713 56.4692 56.247 56.0975 55.0468C56.0814 54.995 56.0656 54.9439 56.05 54.8935C55.6081 53.4678 55.3355 52.5883 55.2703 51.8395C55.2434 51.5314 55.2237 51.3004 55.2295 51.0613C55.2353 50.8221 55.2663 50.5923 55.3081 50.2859C55.3668 49.8557 55.5515 49.2516 55.8152 48.4783C56.0872 47.6806 56.4767 46.6105 56.9885 45.2043L56.9931 45.1917C57.6437 43.4043 58 41.4686 58 39.4461Z" stroke="#2FC9B9" stroke-width="2"/>
</svg>
