<svg width="81" height="80" viewBox="0 0 81 80" fill="none" xmlns="http://www.w3.org/2000/svg">
<path d="M4.20332 44.4653C2.62224 41.6984 2.62224 38.3016 4.20332 35.5348L18.489 10.5348C20.0914 7.73057 23.0735 6 26.3032 6L54.6968 6C57.9265 6 60.9086 7.73057 62.511 10.5347L76.7967 35.5347C78.3778 38.3016 78.3778 41.6984 76.7967 44.4652L62.511 69.4652C60.9086 72.2694 57.9265 74 54.6968 74L26.3032 74C23.0735 74 20.0914 72.2694 18.489 69.4652L4.20332 44.4653Z" stroke="#2FC9B9" stroke-width="2"/>
<path fill-rule="evenodd" clip-rule="evenodd" d="M24.9 33H24.8572C23.7734 33 22.8993 33 22.1914 33.0578C21.4625 33.1174 20.8223 33.2432 20.23 33.545C19.2892 34.0243 18.5243 34.7892 18.045 35.73C17.7432 36.3223 17.6174 36.9625 17.5578 37.6914C17.5 38.3993 17.5 39.2734 17.5 40.3572V40.3572V40.4V51.6V51.6428C17.5 52.7266 17.5 53.6007 17.5578 54.3086C17.6174 55.0375 17.7432 55.6777 18.045 56.27C18.5243 57.2108 19.2892 57.9757 20.23 58.455C20.8223 58.7568 21.4625 58.8826 22.1914 58.9422C22.8992 59 23.7733 59 24.8571 59H24.8572H24.9H56.1H56.1428H56.1429C57.2267 59 58.1008 59 58.8086 58.9422C59.5375 58.8826 60.1777 58.7568 60.77 58.455C61.7108 57.9757 62.4757 57.2108 62.955 56.27C63.2568 55.6777 63.3826 55.0375 63.4422 54.3086C63.5 53.6008 63.5 52.7266 63.5 51.6428V51.6V40.4V40.3572C63.5 39.2734 63.5 38.3993 63.4422 37.6914C63.3826 36.9625 63.2568 36.3223 62.955 35.73C62.4757 34.7892 61.7108 34.0243 60.77 33.545C60.1777 33.2432 59.5375 33.1174 58.8086 33.0578C58.1007 33 57.2266 33 56.1428 33H56.1H24.9ZM21.138 35.327C21.4014 35.1928 21.7491 35.1006 22.3542 35.0512C22.9711 35.0008 23.7634 35 24.9 35H56.1C57.2366 35 58.0289 35.0008 58.6458 35.0512C59.2509 35.1006 59.5986 35.1928 59.862 35.327C60.4265 35.6146 60.8854 36.0735 61.173 36.638C61.3072 36.9014 61.3994 37.2491 61.4488 37.8542C61.4992 38.4711 61.5 39.2634 61.5 40.4V51.6C61.5 52.7366 61.4992 53.5289 61.4488 54.1458C61.3994 54.7509 61.3072 55.0986 61.173 55.362C60.8854 55.9265 60.4265 56.3854 59.862 56.673C59.5986 56.8072 59.2509 56.8994 58.6458 56.9488C58.0289 56.9992 57.2366 57 56.1 57H24.9C23.7634 57 22.9711 56.9992 22.3542 56.9488C21.7491 56.8994 21.4014 56.8072 21.138 56.673C20.5735 56.3854 20.1146 55.9265 19.827 55.362C19.6928 55.0986 19.6006 54.7509 19.5512 54.1458C19.5008 53.5289 19.5 52.7366 19.5 51.6V40.4C19.5 39.2634 19.5008 38.4711 19.5512 37.8542C19.6006 37.2491 19.6928 36.9014 19.827 36.638C20.1146 36.0735 20.5735 35.6146 21.138 35.327ZM36.5 46C36.5 43.7909 38.2909 42 40.5 42C42.7091 42 44.5 43.7909 44.5 46C44.5 48.2091 42.7091 50 40.5 50C38.2909 50 36.5 48.2091 36.5 46ZM40.5 40C37.1863 40 34.5 42.6863 34.5 46C34.5 49.3137 37.1863 52 40.5 52C43.8137 52 46.5 49.3137 46.5 46C46.5 42.6863 43.8137 40 40.5 40ZM23.5 45C22.9477 45 22.5 45.4477 22.5 46C22.5 46.5523 22.9477 47 23.5 47H30.5C31.0523 47 31.5 46.5523 31.5 46C31.5 45.4477 31.0523 45 30.5 45H23.5ZM49.5 46C49.5 45.4477 49.9477 45 50.5 45H57.5C58.0523 45 58.5 45.4477 58.5 46C58.5 46.5523 58.0523 47 57.5 47H50.5C49.9477 47 49.5 46.5523 49.5 46Z" fill="#2FC9B9"/>
<path d="M54.5 18.7619L51.833 25.9549C51.7554 26.164 51.392 26.1101 51.3559 25.89C51.0239 23.865 49.7944 22.1813 48.1167 20.5614C46.1418 18.6545 43.4156 17.4205 40.4459 17.0895C37.4763 16.7584 34.4658 17.3528 31.9753 18.7619C29.4849 20.1711 27.6843 22.2988 26.909 24.7487C26.6746 25.4894 26.5388 26.2443 26.5 27" stroke="#2FC9B9" stroke-width="2" stroke-linecap="round"/>
</svg>
