<svg width="80" height="80" viewBox="0 0 80 80" fill="none" xmlns="http://www.w3.org/2000/svg">
<path d="M3.70332 44.4653C2.12224 41.6984 2.12224 38.3016 3.70332 35.5348L17.989 10.5348C19.5914 7.73057 22.5735 6 25.8032 6L54.1968 6C57.4265 6 60.4086 7.73057 62.011 10.5347L76.2967 35.5347C77.8778 38.3016 77.8778 41.6984 76.2967 44.4652L62.011 69.4652C60.4086 72.2694 57.4265 74 54.1968 74L25.8032 74C22.5735 74 19.5914 72.2694 17.989 69.4652L3.70332 44.4653Z" stroke="#2FC9B9" stroke-width="2"/>
<path fill-rule="evenodd" clip-rule="evenodd" d="M43 22H30.4C29.2469 22 28.5023 22.0016 27.9357 22.0479C27.3923 22.0922 27.1909 22.1676 27.092 22.218C26.7157 22.4097 26.4097 22.7157 26.218 23.092C26.1676 23.1909 26.0922 23.3923 26.0479 23.9357C26.0016 24.5023 26 25.2469 26 26.4V53.6C26 54.7531 26.0016 55.4977 26.0479 56.0643C26.0922 56.6077 26.1676 56.8091 26.218 56.908C26.4097 57.2843 26.7157 57.5903 27.092 57.782C27.1909 57.8324 27.3923 57.9078 27.9357 57.9521C28.5023 57.9984 29.2469 58 30.4 58H49.6C50.7531 58 51.4977 57.9984 52.0643 57.9521C52.6077 57.9078 52.8091 57.8324 52.908 57.782C53.2843 57.5903 53.5903 57.2843 53.782 56.908C53.8324 56.8091 53.9078 56.6077 53.9521 56.0643C53.9984 55.4977 54 54.7531 54 53.6V33H49.4545C45.9734 33 43 30.3938 43 27V22ZM45 22.8284V27C45 29.129 46.9106 31 49.4545 31H53.1716L45 22.8284ZM45 20H30.4C28.1598 20 27.0397 20 26.184 20.436C25.4314 20.8195 24.8195 21.4314 24.436 22.184C24 23.0397 24 24.1598 24 26.4V53.6C24 55.8402 24 56.9603 24.436 57.816C24.8195 58.5686 25.4314 59.1805 26.184 59.564C27.0397 60 28.1598 60 30.4 60H49.6C51.8402 60 52.9603 60 53.816 59.564C54.5686 59.1805 55.1805 58.5686 55.564 57.816C56 56.9603 56 55.8402 56 53.6V31L45 20ZM37.7071 32.2929C38.0976 32.6834 38.0976 33.3166 37.7071 33.7071L33.7071 37.7071C33.3166 38.0976 32.6834 38.0976 32.2929 37.7071L30.2929 35.7071C29.9024 35.3166 29.9024 34.6834 30.2929 34.2929C30.6834 33.9024 31.3166 33.9024 31.7071 34.2929L33 35.5858L36.2929 32.2929C36.6834 31.9024 37.3166 31.9024 37.7071 32.2929ZM37.7071 40.2929C38.0976 40.6834 38.0976 41.3166 37.7071 41.7071L33.7071 45.7071C33.3166 46.0976 32.6834 46.0976 32.2929 45.7071L30.2929 43.7071C29.9024 43.3166 29.9024 42.6834 30.2929 42.2929C30.6834 41.9024 31.3166 41.9024 31.7071 42.2929L33 43.5858L36.2929 40.2929C36.6834 39.9024 37.3166 39.9024 37.7071 40.2929ZM37.7071 49.7071C38.0976 49.3166 38.0976 48.6834 37.7071 48.2929C37.3166 47.9024 36.6834 47.9024 36.2929 48.2929L33 51.5858L31.7071 50.2929C31.3166 49.9024 30.6834 49.9024 30.2929 50.2929C29.9024 50.6834 29.9024 51.3166 30.2929 51.7071L32.2929 53.7071C32.6834 54.0976 33.3166 54.0976 33.7071 53.7071L37.7071 49.7071Z" fill="#2FC9B9"/>
</svg>
