<svg width="80" height="80" viewBox="0 0 80 80" fill="none" xmlns="http://www.w3.org/2000/svg">
<path d="M3.70332 44.4653C2.12224 41.6984 2.12224 38.3016 3.70332 35.5348L17.989 10.5348C19.5914 7.73057 22.5735 6 25.8032 6L54.1968 6C57.4265 6 60.4086 7.73057 62.011 10.5347L76.2967 35.5347C77.8778 38.3016 77.8778 41.6984 76.2967 44.4652L62.011 69.4652C60.4086 72.2694 57.4265 74 54.1968 74L25.8032 74C22.5735 74 19.5914 72.2694 17.989 69.4652L3.70332 44.4653Z" stroke="#2FC9B9" stroke-width="2"/>
<path d="M35 28.6615C35 23.3351 39.3643 19 44.7692 19H47.2308C52.6357 19 57 23.3351 57 28.6615C57 33.988 52.6357 38.3231 47.2308 38.3231H44.7692H44.7646C43.0524 38.3231 41.7625 38.3231 40.8526 38.3294C39.9805 38.3354 39.3755 38.3466 39.1053 38.3818C39.0629 38.3873 39.0375 38.3905 39.02 38.3927L39.0191 38.3928C39.0055 38.3945 38.9811 38.3974 38.9557 38.4013C38.9326 38.4048 38.9105 38.4088 38.8965 38.4113L38.8927 38.412L38.8927 38.412C38.8752 38.4152 38.85 38.4197 38.8071 38.4272C38.359 38.5054 37.9551 38.6313 37.3166 38.8306L37.2602 38.8481L36.861 38.9726C36.424 39.1089 36.0598 38.702 36.1823 38.3193C36.8786 36.1445 36.3157 33.8979 35.6146 32.042C35.2175 30.9907 35 29.852 35 28.6615Z" stroke="#2FC9B9" stroke-width="2"/>
<path fill-rule="evenodd" clip-rule="evenodd" d="M43 29C43 29.5523 42.5523 30 42 30C41.4477 30 41 29.5523 41 29C41 28.4477 41.4477 28 42 28C42.5523 28 43 28.4477 43 29ZM47 29C47 29.5523 46.5523 30 46 30C45.4477 30 45 29.5523 45 29C45 28.4477 45.4477 28 46 28C46.5523 28 47 28.4477 47 29ZM50 30C50.5523 30 51 29.5523 51 29C51 28.4477 50.5523 28 50 28C49.4477 28 49 28.4477 49 29C49 29.5523 49.4477 30 50 30Z" fill="#2FC9B9"/>
<path d="M47 55.495C47 56.035 46.8798 56.59 46.6245 57.13C46.369 57.67 46.0385 58.18 45.6028 58.66C44.8668 59.47 44.0557 60.055 43.1392 60.43C42.2378 60.805 41.2613 61 40.2098 61C38.6775 61 37.04 60.64 35.3125 59.905C33.5848 59.17 31.8573 58.18 30.1447 56.935C28.4171 55.675 26.7797 54.28 25.2173 52.735C23.67 51.175 22.2729 49.54 21.026 47.83C19.7942 46.12 18.8027 44.41 18.0816 42.715C17.3605 41.005 17 39.37 17 37.81C17 36.79 17.1803 35.815 17.5408 34.915C17.9014 34 18.4722 33.16 19.2684 32.41C20.2299 31.465 21.2814 31 22.3931 31C22.8137 31 23.2343 31.09 23.6099 31.27C24.0005 31.45 24.346 31.72 24.6164 32.11L28.1016 37.015C28.3721 37.39 28.5673 37.735 28.7025 38.065C28.8378 38.38 28.9128 38.695 28.9128 38.98C28.9128 39.34 28.8077 39.7 28.5974 40.045C28.4021 40.39 28.1167 40.75 27.7561 41.11L26.6144 42.295C26.4492 42.46 26.3741 42.655 26.3741 42.895C26.3741 43.015 26.3891 43.12 26.4191 43.24C26.4376 43.2892 26.4561 43.3333 26.4735 43.3745C26.5197 43.4836 26.5671 43.5927 26.6274 43.6948C26.9059 44.1668 27.3423 44.7589 27.9364 45.46C28.6124 46.24 29.3335 47.035 30.1147 47.83C30.9258 48.625 31.707 49.36 32.5033 50.035C33.2845 50.695 33.9303 51.145 34.4412 51.415C34.5163 51.445 34.6063 51.49 34.7115 51.535C34.8317 51.58 34.952 51.595 35.0872 51.595C35.3425 51.595 35.5378 51.505 35.703 51.34L36.8448 50.215C37.2203 49.84 37.5808 49.555 37.9263 49.375C38.2718 49.165 38.6175 49.06 38.993 49.06C39.2785 49.06 39.5788 49.12 39.9093 49.255C40.2398 49.39 40.5853 49.585 40.961 49.84L45.9333 53.365C46.324 53.635 46.5943 53.95 46.7597 54.325C46.9098 54.7 47 55.075 47 55.495Z" stroke="#2FC9B9" stroke-width="2"/>
</svg>
