<svg width="80" height="80" viewBox="0 0 80 80" fill="none" xmlns="http://www.w3.org/2000/svg">
<path d="M3.70332 44.4653C2.12224 41.6984 2.12224 38.3016 3.70332 35.5348L17.989 10.5348C19.5914 7.73057 22.5735 6 25.8032 6L54.1968 6C57.4265 6 60.4086 7.73057 62.011 10.5347L76.2967 35.5347C77.8778 38.3016 77.8778 41.6984 76.2967 44.4652L62.011 69.4652C60.4086 72.2694 57.4265 74 54.1968 74L25.8032 74C22.5735 74 19.5914 72.2694 17.989 69.4652L3.70332 44.4653Z" stroke="#2FC9B9" stroke-width="2"/>
<path fill-rule="evenodd" clip-rule="evenodd" d="M28.6 22H39.2151C42.9821 22 44.5207 22.0141 45.8948 22.357C48.07 22.8999 50.0496 24.0411 51.6093 25.6515C52.5946 26.6689 53.3778 27.9933 55.2654 31.2532L55.3977 31.4818C55.8195 32.2101 56.5376 32.7186 57.3647 32.8744C60.6329 33.4902 63 36.3449 63 39.6706V41.5345C63 42.0111 62.9979 42.1144 62.9917 42.1825C62.9036 43.1429 62.1429 43.9036 61.1825 43.9917L61.1759 43.9922C60.1023 44.079 59.1552 44.8374 58.8888 45.9425C58.4657 47.6977 56.8825 49 55 49C53.1184 49 51.5357 47.6989 51.1118 45.9448C50.8579 44.8944 49.9121 44 48.6599 44H35.3401C34.5577 44 33.8948 44.3493 33.4457 44.8676C33.7385 44.9747 34.1578 45.0682 34.7446 45.199C35.5202 45.3719 36.3097 45.6411 37.0889 46H48.6599C48.9041 46 49.1104 46.1773 49.1677 46.4147C49.8037 49.0457 52.1736 51 55 51C57.8276 51 60.1984 49.044 60.8331 46.4112C60.89 46.175 61.095 46.0053 61.3371 45.9857L61.3651 45.9833C63.2857 45.8073 64.8073 44.2857 64.9833 42.3651C65 42.1829 65 41.9668 65 41.5345V39.6706C65 35.3831 61.9483 31.7028 57.735 30.909C57.48 30.861 57.2586 30.7042 57.1285 30.4796L56.9962 30.2511C55.1606 27.081 54.2429 25.496 53.0459 24.2601C51.2263 22.3813 48.9168 21.0498 46.3791 20.4166C44.7098 20 42.8783 20 39.2151 20H28.6C25.2397 20 23.5595 20 22.2761 20.654C21.1471 21.2292 20.2292 22.1471 19.654 23.2761C19 24.5595 19 26.2397 19 29.6V36.4C19 39.7603 19 41.4405 19.654 42.7239C20.2292 43.8529 21.1471 44.7708 22.2761 45.346C22.4178 45.4183 22.5645 45.4825 22.7177 45.5397C22.8636 45.5942 22.9799 45.7054 23.0404 45.8449L24.5677 44.5225C24.2753 44.1367 23.8767 43.8375 23.4169 43.6659C23.3325 43.6344 23.2558 43.6006 23.184 43.564C22.4314 43.1805 21.8195 42.5686 21.436 41.816C21.2766 41.5032 21.1467 41.0548 21.0751 40.1779C21.0016 39.2777 21 38.1132 21 36.4V29.6C21 27.8868 21.0016 26.7223 21.0751 25.8221C21.1467 24.9452 21.2766 24.4968 21.436 24.184C21.8195 23.4314 22.4314 22.8195 23.184 22.436C23.4968 22.2766 23.9452 22.1467 24.8221 22.0751C25.7223 22.0016 26.8868 22 28.6 22Z" fill="#2FC9B9"/>
<path d="M20.1805 48.5786L20.1805 48.5786C19.9398 48.7897 19.9398 49.2103 20.1805 49.4214L20.1805 49.4214L32.1202 59.8944C32.2623 60.0191 32.4111 60.025 32.5481 59.9569C32.6913 59.8857 32.8213 59.7271 32.8213 59.473V56.4867C32.8213 56.4675 32.8213 56.4483 32.8213 56.4291C32.8212 55.9973 32.8211 55.5723 32.8721 55.2213C32.9307 54.8177 33.0738 54.3694 33.4677 54.0073C33.8509 53.655 34.2913 53.542 34.6971 53.5143C35.0406 53.4908 35.4459 53.525 35.8465 53.5589C35.8656 53.5605 35.8847 53.5621 35.9037 53.5637C37.6551 53.7112 39.2679 54.105 40.8329 55.0269C42.3893 55.9437 43.831 57.3431 45.3094 59.3998L44.5031 59.9794L45.3094 59.3998C45.4626 59.6128 45.6512 59.645 45.7538 59.6261C45.8048 59.6167 45.8354 59.5962 45.8541 59.5761C45.8696 59.5594 45.9084 59.5101 45.9213 59.3859C46.7519 51.3972 40.8083 45.8081 35.5981 44.708L35.5537 44.6986C35.0796 44.5985 34.6562 44.5092 34.3267 44.4065C34.0001 44.3047 33.5738 44.1368 33.2678 43.7595C32.9783 43.4025 32.8912 42.9952 32.855 42.6611C32.8212 42.3486 32.8212 41.9666 32.8213 41.5599L32.8213 41.5133V38.527C32.8213 38.2729 32.6913 38.1143 32.5481 38.0431C32.4111 37.975 32.2623 37.9809 32.1202 38.1056L31.4608 37.3538L32.1202 38.1056L20.1805 48.5786Z" stroke="#2FC9B9" stroke-width="2"/>
</svg>
