<svg width="56" height="33" viewBox="0 0 56 33" fill="none" xmlns="http://www.w3.org/2000/svg">
<path d="M26.7005 29.4557C32.7552 28.1187 39.402 26.178 45.708 22.9413C47.6797 21.9249 49.5742 20.8098 51.2708 19.2408C52.0261 18.5307 52.7689 17.7473 53.4053 16.8707C53.8679 16.216 54.2117 15.3949 54.4322 14.5594C54.9699 12.5676 54.4187 10.7445 52.9013 9.6338C52.0038 8.97247 51.0434 8.47424 50.0431 8.09697C47.1948 6.97402 44.2642 6.43362 41.3416 6.11847C38.9121 5.86102 36.4924 6.01746 34.0913 6.28375C33.7925 6.30261 33.5061 6.39471 33.2472 6.29262C33.0237 6.22161 32.7337 5.93643 32.6964 5.71673C32.6759 5.41824 32.8603 5.08092 33.0402 4.89562C33.2202 4.71032 33.5252 4.72807 33.7592 4.68369C37.6152 3.91476 41.4927 4.16223 45.3588 5.05438C47.2449 5.49047 49.1266 6.07858 50.9915 6.74547C51.9563 7.09167 52.9353 7.69975 53.7805 8.4088C55.6066 9.91455 56.3326 12.2336 55.859 14.7802C55.6315 16.1084 55.0971 17.2302 54.4209 18.2278C53.1836 20.012 51.6483 21.2858 50.0233 22.3877C46.8549 24.5381 43.4639 26.0882 39.9707 27.393C35.8295 28.972 31.6262 30.1848 27.3145 31.1157C22.1837 32.202 16.9782 32.8488 11.6908 32.3018C9.57246 32.0987 7.49217 31.586 5.48357 30.6062C4.16401 29.9493 2.94283 29.1604 1.88733 27.9243C0.19144 25.9403 -0.352759 23.6245 0.21926 20.9459C0.538918 19.4491 1.13617 18.1641 1.8691 16.9669C3.80823 13.8023 6.3062 11.4388 9.04189 9.40824C12.61 6.76628 16.5029 4.96985 20.5226 3.56511C25.6817 1.75537 30.9961 0.861059 36.4163 0.589242C41.0864 0.34627 45.7725 0.5538 50.4509 1.78328C51.0504 1.93419 51.633 2.16389 52.2156 2.39358C52.6333 2.54116 52.9233 2.82633 52.8703 3.40333C52.8216 3.82831 52.4661 4.0469 51.9482 3.84273C48.9661 2.82076 45.9389 2.60103 42.9117 2.38131C39.3685 2.14605 35.8352 2.32467 32.3329 2.68638C26.1077 3.3754 20.1214 5.11523 14.4635 8.07785C11.4005 9.60355 8.54156 11.6197 5.99934 14.2561C4.68745 15.601 3.49442 17.1122 2.56216 18.9142C2.22275 19.5833 1.92504 20.3201 1.69207 21.0824C1.00557 23.4425 1.54795 25.5697 3.25701 27.0976C4.11465 27.8799 5.09371 28.488 6.0896 29.0173C8.27558 30.1524 10.5713 30.5108 12.8882 30.6385C17.2817 30.9015 21.6449 30.4521 26.7005 29.4557Z" fill="#FF9393"/>
</svg>
