<svg width="9" height="13" viewBox="0 0 9 13" fill="none" xmlns="http://www.w3.org/2000/svg">
<path fill-rule="evenodd" clip-rule="evenodd" d="M0.830861 0.756879C1.24128 0.387319 1.87358 0.420442 2.24314 0.830861L2.38014 0.983006C3.56641 2.30043 4.90102 3.47629 6.35739 4.48716L8.07021 5.67603C8.33943 5.8629 8.50001 6.16982 8.50001 6.49753C8.50001 6.82525 8.33943 7.13217 8.07021 7.31904L6.35739 8.50791C4.90102 9.51877 3.56641 10.6946 2.38014 12.0121L2.24314 12.1642C1.87358 12.5746 1.24128 12.6077 0.830861 12.2382C0.420442 11.8686 0.387319 11.2363 0.756879 10.8259L0.893878 10.6738C2.18331 9.24178 3.63397 7.96367 5.21698 6.8649L5.74625 6.49753L5.21698 6.13016C3.63397 5.0314 2.18331 3.75329 0.893877 2.3213L0.756879 2.16916C0.387319 1.75874 0.420442 1.12644 0.830861 0.756879Z" fill="#5F5F67"/>
</svg>
