<svg width="20" height="21" viewBox="0 0 20 21" fill="none" xmlns="http://www.w3.org/2000/svg">
<g clip-path="url(#clip0_1359_3986)">
<path d="M4.17453 14.9203L3.13075 14.0984C3.02005 14.0154 2.95679 13.8991 2.94098 13.7497C2.92516 13.5836 2.94888 13.4508 3.01214 13.3512C3.01214 13.3346 3.05959 13.2765 3.15448 13.1768L4.86247 11.533L2.5377 11.259C2.47444 11.2424 2.427 11.2341 2.39537 11.2341C2.37955 11.2175 2.36374 11.2092 2.34792 11.2092C2.23722 11.176 2.14233 11.093 2.06326 10.9601C2 10.8107 1.98419 10.6613 2.01581 10.5118L2.44281 9.19178C2.47444 9.05895 2.56142 8.95932 2.70376 8.8929C2.84609 8.82648 2.97261 8.80988 3.08331 8.84309C3.09912 8.84309 3.16238 8.8763 3.27309 8.94272L5.31319 10.1631L4.83875 7.7472C4.82293 7.68078 4.81502 7.63927 4.81502 7.62266C4.81502 7.58946 4.81502 7.56455 4.81502 7.54795C4.81502 7.41511 4.86247 7.29058 4.95736 7.17435C5.06806 7.05812 5.19458 7 5.33691 7H6.64163C6.78396 7 6.90257 7.05812 6.99746 7.17435C7.10816 7.29058 7.16351 7.41511 7.16351 7.54795C7.16351 7.56455 7.16351 7.58946 7.16351 7.62266C7.16351 7.63927 7.15561 7.68078 7.13979 7.7472L6.66535 10.1631L8.72917 8.94272C8.83988 8.8763 8.90313 8.84309 8.91895 8.84309C9.04547 8.80988 9.17199 8.82648 9.2985 8.8929C9.44084 8.95932 9.52782 9.05895 9.55945 9.19178L9.98644 10.5118C10.0181 10.6613 9.99435 10.8107 9.91528 10.9601C9.85202 11.093 9.75713 11.176 9.63061 11.2092C9.6148 11.2092 9.59108 11.2175 9.55945 11.2341C9.54363 11.2341 9.512 11.2424 9.46456 11.259L7.11607 11.533L8.84778 13.1768C8.94267 13.2765 8.99012 13.3346 8.99012 13.3512C9.06919 13.4508 9.10082 13.5836 9.085 13.7497C9.06919 13.8991 8.99802 14.0154 8.87151 14.0984L7.82773 14.9203C7.70121 14.9867 7.56679 15.0116 7.42446 14.995C7.28212 14.9784 7.17142 14.912 7.09235 14.7958C7.09235 14.7792 7.08444 14.7626 7.06862 14.746C7.05281 14.7293 7.02909 14.6878 6.99746 14.6214L6.00113 12.3549L5.0048 14.6214C4.98899 14.6878 4.96526 14.7293 4.93363 14.746C4.91782 14.7626 4.90991 14.7792 4.90991 14.7958C4.84665 14.912 4.73595 14.9784 4.5778 14.995C4.43547 15.0116 4.30105 14.9867 4.17453 14.9203Z" fill="#9F9EA4"/>
<path d="M14.1745 14.9203L13.1308 14.0984C13.0201 14.0154 12.9568 13.8991 12.941 13.7497C12.9252 13.5836 12.9489 13.4508 13.0121 13.3512C13.0121 13.3346 13.0596 13.2765 13.1545 13.1768L14.8625 11.533L12.5377 11.259C12.4744 11.2424 12.427 11.2341 12.3954 11.2341C12.3796 11.2175 12.3637 11.2092 12.3479 11.2092C12.2372 11.176 12.1423 11.093 12.0633 10.9601C12 10.8107 11.9842 10.6613 12.0158 10.5118L12.4428 9.19178C12.4744 9.05895 12.5614 8.95932 12.7038 8.8929C12.8461 8.82648 12.9726 8.80988 13.0833 8.84309C13.0991 8.84309 13.1624 8.8763 13.2731 8.94272L15.3132 10.1631L14.8387 7.7472C14.8229 7.68078 14.815 7.63927 14.815 7.62266C14.815 7.58946 14.815 7.56455 14.815 7.54795C14.815 7.41511 14.8625 7.29058 14.9574 7.17435C15.0681 7.05812 15.1946 7 15.3369 7H16.6416C16.784 7 16.9026 7.05812 16.9975 7.17435C17.1082 7.29058 17.1635 7.41511 17.1635 7.54795C17.1635 7.56455 17.1635 7.58946 17.1635 7.62266C17.1635 7.63927 17.1556 7.68078 17.1398 7.7472L16.6653 10.1631L18.7292 8.94272C18.8399 8.8763 18.9031 8.84309 18.9189 8.84309C19.0455 8.80988 19.172 8.82648 19.2985 8.8929C19.4408 8.95932 19.5278 9.05895 19.5594 9.19178L19.9864 10.5118C20.0181 10.6613 19.9944 10.8107 19.9153 10.9601C19.852 11.093 19.7571 11.176 19.6306 11.2092C19.6148 11.2092 19.5911 11.2175 19.5594 11.2341C19.5436 11.2341 19.512 11.2424 19.4646 11.259L17.1161 11.533L18.8478 13.1768C18.9427 13.2765 18.9901 13.3346 18.9901 13.3512C19.0692 13.4508 19.1008 13.5836 19.085 13.7497C19.0692 13.8991 18.998 14.0154 18.8715 14.0984L17.8277 14.9203C17.7012 14.9867 17.5668 15.0116 17.4245 14.995C17.2821 14.9784 17.1714 14.912 17.0923 14.7958C17.0923 14.7792 17.0844 14.7626 17.0686 14.746C17.0528 14.7293 17.0291 14.6878 16.9975 14.6214L16.0011 12.3549L15.0048 14.6214C14.989 14.6878 14.9653 14.7293 14.9336 14.746C14.9178 14.7626 14.9099 14.7792 14.9099 14.7958C14.8467 14.912 14.7359 14.9784 14.5778 14.995C14.4355 15.0116 14.301 14.9867 14.1745 14.9203Z" fill="#9F9EA4"/>
</g>
<defs>
<clipPath id="clip0_1359_3986">
<rect width="20" height="20" fill="white" transform="translate(0 0.5)"/>
</clipPath>
</defs>
</svg>
