<svg width="132" height="132" viewBox="0 0 132 132" fill="none" xmlns="http://www.w3.org/2000/svg">
<path d="M66 112C91.4051 112 112 91.4051 112 66C112 40.5949 91.4051 20 66 20C40.5949 20 20 40.5949 20 66C20 91.4051 40.5949 112 66 112Z" fill="white"/>
<path d="M66 122C96.9279 122 122 96.9279 122 66C122 35.0721 96.9279 10 66 10C35.0721 10 10 35.0721 10 66C10 96.9279 35.0721 122 66 122Z" stroke="white" stroke-opacity="0.2" stroke-width="20" stroke-linecap="round" stroke-linejoin="round"/>
<path d="M58 62.93C58 58.1031 58 55.6896 59.5564 54.8352C61.1127 53.9808 63.1489 55.2766 67.2213 57.8681L72.0455 60.938C75.6232 63.2148 77.4121 64.3532 77.4121 66C77.4121 67.6468 75.6232 68.7852 72.0455 71.062L67.2213 74.1319C63.1489 76.7234 61.1127 78.0192 59.5564 77.1648C58 76.3104 58 73.8969 58 69.07V62.93Z" fill="#5F5F67"/>
</svg>
