<svg width="80" height="80" viewBox="0 0 80 80" fill="none" xmlns="http://www.w3.org/2000/svg">
<path d="M3.70332 44.4653C2.12224 41.6984 2.12224 38.3016 3.70332 35.5348L17.989 10.5348C19.5914 7.73057 22.5735 6 25.8032 6L54.1968 6C57.4265 6 60.4086 7.73057 62.011 10.5347L76.2967 35.5347C77.8778 38.3016 77.8778 41.6984 76.2967 44.4652L62.011 69.4652C60.4086 72.2694 57.4265 74 54.1968 74L25.8032 74C22.5735 74 19.5914 72.2694 17.989 69.4652L3.70332 44.4653Z" stroke="#2FC9B9" stroke-width="2"/>
<path d="M19 40C19 28.402 28.402 19 40 19C51.598 19 61 28.402 61 40C61 51.598 51.598 61 40 61C28.402 61 19 51.598 19 40Z" stroke="#2FC9B9" stroke-width="2"/>
<path d="M47 40C47 45.9899 46.1155 51.3689 44.7171 55.2146C44.0163 57.1416 43.2056 58.6306 42.3557 59.6192C41.5029 60.6111 40.7035 61 40 61C39.2965 61 38.4971 60.6111 37.6443 59.6192C36.7944 58.6306 35.9837 57.1416 35.2829 55.2146C33.8845 51.3689 33 45.9899 33 40C33 34.0101 33.8845 28.6311 35.2829 24.7854C35.9837 22.8584 36.7944 21.3694 37.6443 20.3808C38.4971 19.3889 39.2965 19 40 19C40.7035 19 41.5029 19.3889 42.3557 20.3808C43.2056 21.3694 44.0163 22.8584 44.7171 24.7854C46.1155 28.6311 47 34.0101 47 40Z" stroke="#2FC9B9" stroke-width="2"/>
<path d="M40 33C45.9899 33 51.3689 33.8845 55.2146 35.2829C57.1416 35.9837 58.6306 36.7944 59.6192 37.6443C60.6111 38.4971 61 39.2965 61 40C61 40.7035 60.6111 41.5029 59.6192 42.3557C58.6306 43.2056 57.1416 44.0163 55.2146 44.7171C51.3689 46.1155 45.9899 47 40 47C34.0101 47 28.6311 46.1155 24.7854 44.7171C22.8584 44.0163 21.3694 43.2056 20.3808 42.3557C19.3889 41.5029 19 40.7035 19 40C19 39.2965 19.3889 38.4971 20.3808 37.6443C21.3694 36.7944 22.8584 35.9837 24.7854 35.2829C28.6311 33.8845 34.0101 33 40 33Z" stroke="#2FC9B9" stroke-width="2"/>
</svg>
