<svg width="80" height="80" viewBox="0 0 80 80" fill="none" xmlns="http://www.w3.org/2000/svg">
<path d="M3.70332 44.4653C2.12224 41.6984 2.12224 38.3016 3.70332 35.5348L17.989 10.5348C19.5914 7.73057 22.5735 6 25.8032 6L54.1968 6C57.4265 6 60.4086 7.73057 62.011 10.5347L76.2967 35.5347C77.8778 38.3016 77.8778 41.6984 76.2967 44.4652L62.011 69.4652C60.4086 72.2694 57.4265 74 54.1968 74L25.8032 74C22.5735 74 19.5914 72.2694 17.989 69.4652L3.70332 44.4653Z" stroke="#2FC9B9" stroke-width="2"/>
<path fill-rule="evenodd" clip-rule="evenodd" d="M55 25H25C22.7909 25 21 26.7909 21 29L59 29C59 26.7909 57.2091 25 55 25ZM21 35V31H59V35H21ZM21 37H59V45C59 47.2091 57.2091 49 55 49H49.5422C49.7436 49.6412 49.8821 50.3103 49.9506 51H55C58.3137 51 61 48.3137 61 45V37V35V31V29C61 25.6863 58.3137 23 55 23H25C21.6863 23 19 25.6863 19 29V31V35V37V45C19 48.3137 21.6863 51 25 51H30.0494C30.1179 50.3103 30.2564 49.6412 30.4578 49H25C22.7909 49 21 47.2091 21 45V37Z" fill="#2FC9B9"/>
<rect x="30" y="42" width="20" height="20" rx="10" stroke="#2FC9B9" stroke-width="2"/>
<rect x="34" y="46" width="12" height="12" rx="6" stroke="#2FC9B9" stroke-width="2"/>
</svg>
