<svg width="80" height="80" viewBox="0 0 80 80" fill="none" xmlns="http://www.w3.org/2000/svg">
<path d="M3.70332 44.4653C2.12224 41.6984 2.12224 38.3016 3.70332 35.5348L17.989 10.5348C19.5914 7.73057 22.5735 6 25.8032 6L54.1968 6C57.4265 6 60.4086 7.73057 62.011 10.5347L76.2967 35.5347C77.8778 38.3016 77.8778 41.6984 76.2967 44.4652L62.011 69.4652C60.4086 72.2694 57.4265 74 54.1968 74L25.8032 74C22.5735 74 19.5914 72.2694 17.989 69.4652L3.70332 44.4653Z" stroke="#2FC9B9" stroke-width="2"/>
<rect x="27" y="19" width="26" height="42" rx="5" stroke="#2FC9B9" stroke-width="2"/>
<path d="M45.6988 45H33.9027C33.3122 45 32.8503 44.491 32.9074 43.9032L33.8796 33.9032C33.9294 33.3908 34.3601 33 34.8749 33H44.7266C45.2414 33 45.6721 33.3908 45.7219 33.9032L46.6942 43.9032C46.7513 44.491 46.2894 45 45.6988 45Z" stroke="#2FC9B9" stroke-width="2"/>
<path d="M36.8008 33V31C36.8008 29.3431 38.1439 28 39.8008 28V28C41.4576 28 42.8008 29.3431 42.8008 31V33" stroke="#2FC9B9" stroke-width="2"/>
<rect x="1" y="-1" width="4" height="4" rx="2" transform="matrix(1 0 0 -1 36.8008 56)" stroke="#2FC9B9" stroke-width="2"/>
</svg>
