<svg width="80" height="80" viewBox="0 0 80 80" fill="none" xmlns="http://www.w3.org/2000/svg">
<path d="M3.70332 44.4653C2.12224 41.6984 2.12224 38.3016 3.70332 35.5348L17.989 10.5348C19.5914 7.73057 22.5735 6 25.8032 6L54.1968 6C57.4265 6 60.4086 7.73057 62.011 10.5347L76.2967 35.5347C77.8778 38.3016 77.8778 41.6984 76.2967 44.4652L62.011 69.4652C60.4086 72.2694 57.4265 74 54.1968 74L25.8032 74C22.5735 74 19.5914 72.2694 17.989 69.4652L3.70332 44.4653Z" stroke="#2FC9B9" stroke-width="2"/>
<mask id="path-2-inside-1_1397_4355" fill="white">
<path fill-rule="evenodd" clip-rule="evenodd" d="M43.7318 23H26.6C23.2397 23 21.5595 23 20.2761 23.654C19.1471 24.2292 18.2292 25.1471 17.654 26.2761C17 27.5595 17 29.2397 17 32.6V41.4C17 44.7603 17 46.4405 17.654 47.7239C18.2292 48.8529 19.1471 49.7708 20.2761 50.346C20.7171 50.5708 21.205 50.7183 21.7919 50.8151C22.0018 50.8497 22.1717 51.006 22.2276 51.2113C22.9788 53.9709 25.5024 56 28.5 56C31.4353 56 33.9162 54.0543 34.7233 51.3822C34.7903 51.1603 34.9899 51 35.2217 51H48.7783C49.0101 51 49.2096 51.1603 49.2767 51.3822C50.0838 54.0543 52.5647 56 55.5 56C58.4521 56 60.9445 54.0321 61.7369 51.3365C61.8 51.122 61.9873 50.9647 62.2102 50.9469C62.8858 50.8928 63.3845 50.7839 63.816 50.564C64.5686 50.1805 65.1805 49.5686 65.564 48.816C66 47.9603 66 46.8402 66 44.6V43.8307C66 41.3239 66 40.0705 65.5982 39.0285C65.1289 37.8115 64.2758 36.7806 63.1681 36.0918C62.2197 35.5022 60.9885 35.2676 58.5259 34.7986C58.29 34.7537 58.172 34.7312 58.0667 34.6844C57.9434 34.6297 57.8325 34.5506 57.7405 34.4518C57.662 34.3675 57.6023 34.2633 57.483 34.0549L57.4829 34.0548L54.839 29.4385C53.4959 27.0934 52.8244 25.9209 51.8816 25.0679C51.0476 24.3132 50.0637 23.7428 48.9942 23.3941C47.7855 23 46.4343 23 43.7318 23Z"/>
</mask>
<path d="M20.2761 23.654L21.184 25.436L20.2761 23.654ZM17.654 26.2761L19.436 27.184L17.654 26.2761ZM17.654 47.7239L15.8719 48.6319H15.8719L17.654 47.7239ZM20.2761 50.346L19.3681 52.1281L20.2761 50.346ZM63.816 50.564L64.7239 52.346L64.7239 52.346L63.816 50.564ZM65.564 48.816L63.782 47.908L63.782 47.908L65.564 48.816ZM65.5982 39.0285L63.7321 39.7481L63.7321 39.7481L65.5982 39.0285ZM63.1681 36.0918L62.1121 37.7903V37.7903L63.1681 36.0918ZM58.5259 34.7986L58.9002 32.8339L58.5259 34.7986ZM58.0667 34.6844L58.8782 32.8564L58.8782 32.8564L58.0667 34.6844ZM57.7405 34.4518L56.2767 35.8147L56.2768 35.8147L57.7405 34.4518ZM57.483 34.0549L59.2185 33.061L59.1847 33.002L59.1471 32.9455L57.483 34.0549ZM57.4829 34.0548L55.7474 35.0488L55.7812 35.1077L55.8188 35.1642L57.4829 34.0548ZM54.839 29.4385L53.1035 30.4325V30.4325L54.839 29.4385ZM51.8816 25.0679L50.5398 26.5509L50.5398 26.5509L51.8816 25.0679ZM48.9942 23.3941L48.3742 25.2956V25.2956L48.9942 23.3941ZM49.2767 51.3822L47.3621 51.9605L49.2767 51.3822ZM34.7233 51.3822L32.8087 50.8039L34.7233 51.3822ZM62.2102 50.9469L62.0508 48.9532L62.2102 50.9469ZM21.7919 50.8151L21.4663 52.7884L21.7919 50.8151ZM22.2276 51.2113L20.2978 51.7366L22.2276 51.2113ZM26.6 25H43.7318V21H26.6V25ZM21.184 25.436C21.4968 25.2766 21.9452 25.1467 22.8221 25.0751C23.7223 25.0016 24.8868 25 26.6 25V21C24.9528 21 23.5972 20.9984 22.4963 21.0884C21.3722 21.1802 20.3387 21.3774 19.3681 21.8719L21.184 25.436ZM19.436 27.184C19.8195 26.4314 20.4314 25.8195 21.184 25.436L19.3681 21.8719C17.8628 22.6389 16.6389 23.8628 15.8719 25.3681L19.436 27.184ZM19 32.6C19 30.8868 19.0016 29.7223 19.0751 28.8221C19.1467 27.9452 19.2766 27.4968 19.436 27.184L15.8719 25.3681C15.3774 26.3387 15.1802 27.3722 15.0884 28.4963C14.9984 29.5972 15 30.9528 15 32.6H19ZM19 41.4V32.6H15V41.4H19ZM19.436 46.816C19.2766 46.5032 19.1467 46.0548 19.0751 45.1779C19.0016 44.2777 19 43.1132 19 41.4H15C15 43.0472 14.9984 44.4028 15.0884 45.5037C15.1802 46.6278 15.3774 47.6613 15.8719 48.6319L19.436 46.816ZM21.184 48.564C20.4314 48.1805 19.8195 47.5686 19.436 46.816L15.8719 48.6319C16.6389 50.1372 17.8628 51.3611 19.3681 52.1281L21.184 48.564ZM22.1174 48.8418C21.6801 48.7696 21.3994 48.6737 21.184 48.564L19.3681 52.1281C20.0349 52.4678 20.7299 52.6669 21.4663 52.7884L22.1174 48.8418ZM28.5 54C26.4276 54 24.6777 52.5973 24.1574 50.686L20.2978 51.7366C21.2799 55.3445 24.5773 58 28.5 58V54ZM32.8087 50.8039C32.2495 52.6554 30.5292 54 28.5 54V58C32.3415 58 35.583 55.4532 36.6379 51.9605L32.8087 50.8039ZM48.7783 49H35.2217V53H48.7783V49ZM55.5 54C53.4708 54 51.7505 52.6554 51.1913 50.8039L47.3621 51.9605C48.417 55.4532 51.6585 58 55.5 58V54ZM59.8181 50.7724C59.2691 52.6399 57.5408 54 55.5 54V58C59.3633 58 62.6198 55.4242 63.6557 51.9006L59.8181 50.7724ZM62.908 48.782C62.8081 48.8329 62.6043 48.909 62.0508 48.9532L62.3697 52.9405C63.1674 52.8767 63.9609 52.7348 64.7239 52.346L62.908 48.782ZM63.782 47.908C63.5903 48.2843 63.2843 48.5903 62.908 48.782L64.7239 52.346C65.8529 51.7708 66.7708 50.8529 67.346 49.7239L63.782 47.908ZM64 44.6C64 45.7531 63.9984 46.4977 63.9521 47.0643C63.9078 47.6077 63.8324 47.8091 63.782 47.908L67.346 49.7239C67.7316 48.9672 67.8743 48.1807 67.9389 47.3901C68.0016 46.6227 68 45.6871 68 44.6H64ZM64 43.8307V44.6H68V43.8307H64ZM63.7321 39.7481C63.9671 40.3573 64 41.1503 64 43.8307H68C68 41.4974 68.0329 39.7836 67.4643 38.3089L63.7321 39.7481ZM62.1121 37.7903C62.8505 38.2495 63.4193 38.9367 63.7321 39.7481L67.4643 38.3089C66.8385 36.6862 65.7011 35.3117 64.2242 34.3934L62.1121 37.7903ZM58.1517 36.7633C60.7848 37.2648 61.5576 37.4455 62.1121 37.7903L64.2242 34.3934C62.8819 33.5588 61.1922 33.2705 58.9002 32.8339L58.1517 36.7633ZM57.2551 36.5124C57.6206 36.6746 58.008 36.7359 58.1517 36.7633L58.9002 32.8339C58.8702 32.8282 58.8446 32.8233 58.8208 32.8188C58.7972 32.8142 58.7777 32.8104 58.7609 32.807C58.7441 32.8037 58.7318 32.8011 58.7225 32.7992C58.7134 32.7972 58.709 32.7962 58.7081 32.796C58.7058 32.7954 58.7242 32.7997 58.755 32.8094C58.7708 32.8145 58.7897 32.8209 58.811 32.8289C58.8325 32.837 58.855 32.8461 58.8782 32.8564L57.2551 36.5124ZM56.2768 35.8147C56.5525 36.1109 56.8853 36.3482 57.2552 36.5124L58.8782 32.8564C59.0015 32.9112 59.1124 32.9903 59.2043 33.089L56.2768 35.8147ZM55.7474 35.0488C55.8201 35.1758 56.0043 35.5221 56.2767 35.8147L59.2043 33.089C59.2216 33.1076 59.2376 33.1259 59.2522 33.1435C59.2667 33.1611 59.279 33.1768 59.2889 33.1902C59.3081 33.216 59.3182 33.2321 59.3169 33.2301C59.3164 33.2294 59.314 33.2255 59.3092 33.2175C59.3043 33.2094 59.2979 33.1986 59.2892 33.1838C59.2806 33.169 59.2707 33.1518 59.2587 33.131C59.2466 33.11 59.2336 33.0874 59.2185 33.061L55.7474 35.0488ZM55.8188 35.1642L55.8189 35.1643L59.1471 32.9455L59.147 32.9454L55.8188 35.1642ZM53.1035 30.4325L55.7474 35.0488L59.2184 33.0609L56.5746 28.4446L53.1035 30.4325ZM50.5398 26.5509C51.1909 27.14 51.6931 27.9698 53.1035 30.4325L56.5746 28.4446C55.2988 26.217 54.4579 24.7017 53.2235 23.5848L50.5398 26.5509ZM48.3742 25.2956C49.1763 25.5571 49.9142 25.9849 50.5398 26.5509L53.2235 23.5848C52.1809 22.6415 50.951 21.9286 49.6142 21.4927L48.3742 25.2956ZM43.7318 25C46.5697 25 47.5394 25.0234 48.3742 25.2956L49.6142 21.4927C48.0316 20.9766 46.2988 21 43.7318 21V25ZM48.7783 53C48.0564 53 47.5286 52.5117 47.3621 51.9605L51.1913 50.8039C50.8907 49.8088 49.9639 49 48.7783 49V53ZM36.6379 51.9605C36.4714 52.5118 35.9436 53 35.2217 53V49C34.0361 49 33.1093 49.8088 32.8087 50.8039L36.6379 51.9605ZM63.6557 51.9006C63.4935 52.4523 63.0022 52.8899 62.3697 52.9405L62.0508 48.9532C60.9724 49.0395 60.1065 49.7916 59.8181 50.7724L63.6557 51.9006ZM21.4663 52.7884C20.8882 52.693 20.4431 52.2702 20.2978 51.7366L24.1574 50.686C23.9004 49.7417 23.1155 49.0064 22.1174 48.8418L21.4663 52.7884Z" fill="#2FC9B9" mask="url(#path-2-inside-1_1397_4355)"/>
<path fill-rule="evenodd" clip-rule="evenodd" d="M27 31C24.7909 31 23 32.7909 23 35V35.8571V41C23 41.5523 23.4477 42 24 42C24.5523 42 25 41.5523 25 41V36.8571H27.75C28.3023 36.8571 28.75 36.4094 28.75 35.8571C28.75 35.3049 28.3023 34.8571 27.75 34.8571H25.005C25.0783 33.8192 25.9435 33 27 33H29C29.5523 33 30 32.5523 30 32C30 31.4477 29.5523 31 29 31H27ZM31 34C31.4657 34 31.8571 34.3184 31.9683 34.7494C32.8115 34.2032 33.9167 33.9717 35.2607 34.3346C35.7939 34.4785 36.1094 35.0275 35.9654 35.5607C35.8215 36.0939 35.2725 36.4094 34.7393 36.2654C33.7499 35.9983 33.1664 36.2754 32.7768 36.6504C32.3549 37.0566 32.0992 37.65 32 38.0998V41C32 41.5523 31.5523 42 31 42C30.4477 42 30 41.5523 30 41V38V35C30 34.4477 30.4477 34 31 34ZM37.7081 34.6371C38.3113 34.2343 39.0708 34 39.9948 34C42.484 34 43.8856 35.6006 43.9842 37.1633C43.9849 37.1741 43.9853 37.1785 43.9863 37.1883L43.9863 37.1886L43.9864 37.1888C43.9873 37.1988 43.9888 37.2143 43.9917 37.2471C43.9957 37.2937 44.0018 37.3729 43.9996 37.4644C43.9867 37.9892 43.7003 38.3844 43.4068 38.6186C43.1126 38.8533 42.7281 39 42.3241 39H38.2433C38.2516 39.0178 38.2602 39.0357 38.2691 39.0534C38.3971 39.3099 38.5734 39.5357 38.8188 39.6996C39.0579 39.8593 39.4214 40 39.9948 40C41.1838 40 41.536 39.7074 41.6164 39.6268C42.0066 39.236 42.6397 39.2354 43.0306 39.6256C43.4215 40.0158 43.422 40.649 43.0318 41.0398C42.4467 41.6259 41.4981 42 39.9948 42C39.0708 42 38.3113 41.7657 37.7081 41.3629C37.1112 40.9643 36.7259 40.4401 36.4796 39.9466C36.2352 39.457 36.118 38.9795 36.0604 38.6329C36.0311 38.4572 36.0161 38.3086 36.0084 38.2C36.0045 38.1456 36.0024 38.1007 36.0013 38.0669C36.0007 38.0501 36.0004 38.0359 36.0002 38.0247L36 38.0101L36 38.0045L36 38.0021L36 38.001C36 38.0005 36 38 37 38C36 38 36 37.9995 36 37.999L36 37.9979L36 37.9955L36 37.9899L36.0002 37.9753L36.0005 37.9589L36.0013 37.9331C36.0024 37.8993 36.0045 37.8544 36.0084 37.8C36.0161 37.6914 36.0311 37.5428 36.0604 37.3671C36.118 37.0205 36.2352 36.543 36.4796 36.0534C36.7259 35.5599 37.1112 35.0357 37.7081 34.6371ZM38.2433 37C38.2516 36.9822 38.2602 36.9643 38.2691 36.9466C38.3971 36.6901 38.5734 36.4643 38.8188 36.3004C39.0579 36.1407 39.4214 36 39.9948 36C41.2266 36 41.7475 36.5653 41.9193 37H38.2433ZM48.9948 34C48.0708 34 47.3113 34.2343 46.7081 34.6371C46.1112 35.0357 45.7259 35.5599 45.4796 36.0534C45.2352 36.543 45.118 37.0205 45.0604 37.3671C45.0311 37.5428 45.0161 37.6914 45.0084 37.8C45.0045 37.8544 45.0024 37.8993 45.0013 37.9331C45.0009 37.9436 45.0007 37.9532 45.0005 37.9615C45.0004 37.9665 45.0003 37.9711 45.0002 37.9753L45 37.9899L45 37.9955L45 37.9979L45 37.999C45 37.9995 45 38 46 38C45 38 45 38.0005 45 38.001L45 38.0021L45 38.0045L45 38.0101L45.0002 38.0247C45.0004 38.0359 45.0007 38.0501 45.0013 38.0669C45.0024 38.1007 45.0045 38.1456 45.0084 38.2C45.0161 38.3086 45.0311 38.4572 45.0604 38.6329C45.118 38.9795 45.2352 39.457 45.4796 39.9466C45.7259 40.4401 46.1112 40.9643 46.7081 41.3629C47.3113 41.7657 48.0708 42 48.9948 42C50.4981 42 51.4467 41.6259 52.0318 41.0398C52.422 40.649 52.4215 40.0158 52.0306 39.6256C51.6397 39.2354 51.0066 39.236 50.6164 39.6268C50.536 39.7074 50.1838 40 48.9948 40C48.4214 40 48.0579 39.8593 47.8188 39.6996C47.5734 39.5357 47.3971 39.3099 47.2691 39.0534C47.2602 39.0357 47.2516 39.0178 47.2433 39H51.3241C51.7281 39 52.1126 38.8533 52.4068 38.6186C52.7003 38.3844 52.9867 37.9892 52.9996 37.4644C53.0018 37.3729 52.9957 37.2937 52.9917 37.2471C52.9888 37.214 52.9873 37.1985 52.9863 37.1886L52.9863 37.1883C52.9853 37.1785 52.9849 37.1741 52.9842 37.1633C52.8856 35.6006 51.484 34 48.9948 34ZM47.2691 36.9466C47.2602 36.9643 47.2516 36.9822 47.2433 37H50.9193C50.7475 36.5653 50.2266 36 48.9948 36C48.4214 36 48.0579 36.1407 47.8188 36.3004C47.5734 36.4643 47.3971 36.6901 47.2691 36.9466Z" fill="#2FC9B9"/>
</svg>
