<svg width="80" height="80" viewBox="0 0 80 80" fill="none" xmlns="http://www.w3.org/2000/svg">
<path d="M3.70332 44.4653C2.12224 41.6984 2.12224 38.3016 3.70332 35.5348L17.989 10.5348C19.5914 7.73057 22.5735 6 25.8032 6L54.1968 6C57.4265 6 60.4086 7.73057 62.011 10.5347L76.2967 35.5347C77.8778 38.3016 77.8778 41.6984 76.2967 44.4652L62.011 69.4652C60.4086 72.2694 57.4265 74 54.1968 74L25.8032 74C22.5735 74 19.5914 72.2694 17.989 69.4652L3.70332 44.4653Z" stroke="#2FC9B9" stroke-width="2"/>
<path fill-rule="evenodd" clip-rule="evenodd" d="M55 58.0007V27.9266C55 26.3875 54.1169 24.9848 52.7289 24.3196L41.7289 19.0472C40.6358 18.5233 39.3642 18.5233 38.2711 19.0472L27.2711 24.3196C25.8831 24.9848 25 26.3875 25 27.9266V58.0007L34 58.0007V52.0007C34 50.8961 34.8954 50.0007 36 50.0007H44C45.1046 50.0007 46 50.8961 46 52.0007V58.0007L55 58.0007ZM44 58.0007H36V52.0007H44V58.0007ZM25 60.0007L34 60.0007H36H44H46L55 60.0007H57V58.0007V27.9266C57 25.6179 55.6753 23.5139 53.5933 22.516L42.5933 17.2437C40.9537 16.4578 39.0463 16.4578 37.4067 17.2437L26.4067 22.516C24.3247 23.5139 23 25.6179 23 27.9266V58.0007V60.0007H25ZM31 38.0007V36.0007H49V38.0007H31ZM31 40.0007C29.8954 40.0007 29 39.1053 29 38.0007V36.0007C29 34.8961 29.8954 34.0007 31 34.0007H49C50.1046 34.0007 51 34.8961 51 36.0007V38.0007C51 39.1053 50.1046 40.0007 49 40.0007H31ZM31 44.0007V46.0007H49V44.0007H31ZM29 46.0007C29 47.1053 29.8954 48.0007 31 48.0007H49C50.1046 48.0007 51 47.1053 51 46.0007V44.0007C51 42.8961 50.1046 42.0007 49 42.0007H31C29.8954 42.0007 29 42.8961 29 44.0007V46.0007ZM31 30.0007V28.0007L49 28.0007V30.0007L31 30.0007ZM31 32.0007C29.8954 32.0007 29 31.1053 29 30.0007V28.0007C29 26.8961 29.8954 26.0007 31 26.0007L49 26.0007C50.1046 26.0007 51 26.8961 51 28.0007V30.0007C51 31.1053 50.1046 32.0007 49 32.0007L31 32.0007Z" fill="#2FC9B9"/>
</svg>
