<svg width="40" height="40" viewBox="0 0 40 40" fill="none" xmlns="http://www.w3.org/2000/svg">
<g clip-path="url(#clip0_1082_3814)">
<path d="M27.0523 2H13.168C10.9642 2 8.87052 3.2 7.7686 5.05455L0.826446 16.9455C-0.275482 18.8 -0.275482 21.0909 0.826446 23.0545L7.7686 34.9455C8.87052 36.8 10.854 38 13.0579 38H26.9421C29.146 38 31.1295 36.8 32.2314 34.9455L39.1736 23.0545C40.2755 21.2 40.2755 18.9091 39.1736 16.9455L32.3416 5.05455C31.2397 3.2 29.2562 2 27.0523 2Z" fill="#2FC9B9"/>
<path d="M21.7575 28C21.4641 28 21.2148 27.89 21.0095 27.67C20.8041 27.45 20.7015 27.186 20.7015 26.878V24.106H13.3755C13.0381 24.106 12.7741 24.0033 12.5835 23.798C12.3928 23.5927 12.2828 23.358 12.2535 23.094C12.2388 22.8153 12.3121 22.566 12.4735 22.346L20.8995 11.302C21.0168 11.1553 21.1488 11.038 21.2955 10.95C21.4568 10.862 21.6328 10.818 21.8235 10.818C22.1315 10.818 22.3808 10.928 22.5715 11.148C22.7621 11.368 22.8575 11.6393 22.8575 11.962V22.082H24.1775C24.4855 22.082 24.7495 22.1553 24.9695 22.302C25.1895 22.4487 25.2995 22.7127 25.2995 23.094C25.2995 23.3727 25.1895 23.6147 24.9695 23.82C24.7495 24.0107 24.4855 24.106 24.1775 24.106H22.8575V26.878C22.8575 27.186 22.7548 27.45 22.5495 27.67C22.3441 27.89 22.0801 28 21.7575 28ZM14.6955 22.698L14.1015 22.082H20.7015V13.018L21.3835 13.898L14.6955 22.698Z" fill="white"/>
</g>
<defs>
<clipPath id="clip0_1082_3814">
<rect width="40" height="40" fill="white"/>
</clipPath>
</defs>
</svg>
