<svg width="40" height="40" viewBox="0 0 40 40" fill="none" xmlns="http://www.w3.org/2000/svg">
<g clip-path="url(#clip0_1082_3811)">
<path d="M27.0523 2H13.168C10.9642 2 8.87052 3.2 7.7686 5.05455L0.826446 16.9455C-0.275482 18.8 -0.275482 21.0909 0.826446 23.0545L7.7686 34.9455C8.87052 36.8 10.854 38 13.0579 38H26.9421C29.146 38 31.1295 36.8 32.2314 34.9455L39.1736 23.0545C40.2755 21.2 40.2755 18.9091 39.1736 16.9455L32.3416 5.05455C31.2397 3.2 29.2562 2 27.0523 2Z" fill="#2FC9B9"/>
<path d="M19.279 28C18.179 28 17.2037 27.7727 16.353 27.318C15.5024 26.8487 14.835 26.218 14.351 25.426C13.867 24.6193 13.625 23.7173 13.625 22.72C13.625 22.3827 13.7204 22.1113 13.911 21.906C14.1164 21.686 14.3584 21.576 14.637 21.576C14.9304 21.576 15.1724 21.686 15.363 21.906C15.5537 22.1113 15.649 22.3827 15.649 22.72C15.649 23.3213 15.803 23.8787 16.111 24.392C16.419 24.8907 16.837 25.294 17.365 25.602C17.893 25.8953 18.487 26.042 19.147 26.042C20.115 26.042 20.8924 25.778 21.479 25.25C22.0804 24.7073 22.381 23.952 22.381 22.984C22.381 22.368 22.249 21.818 21.985 21.334C21.721 20.8353 21.3617 20.4393 20.907 20.146C20.4524 19.8527 19.939 19.706 19.367 19.706C19.0444 19.706 18.773 19.596 18.553 19.376C18.3477 19.156 18.245 18.8847 18.245 18.562C18.245 18.2393 18.3477 17.9753 18.553 17.77C18.773 17.55 19.0444 17.44 19.367 17.44C19.7777 17.44 20.1737 17.3373 20.555 17.132C20.9364 16.912 21.2517 16.626 21.501 16.274C21.7504 15.9073 21.875 15.4967 21.875 15.042C21.875 14.3967 21.6404 13.854 21.171 13.414C20.7017 12.974 20.1004 12.754 19.367 12.754C18.8097 12.754 18.2964 12.864 17.827 13.084C17.3724 13.304 17.0057 13.5973 16.727 13.964C16.463 14.3307 16.331 14.7413 16.331 15.196C16.331 15.5333 16.2357 15.8193 16.045 16.054C15.8544 16.274 15.6124 16.384 15.319 16.384C15.0404 16.384 14.7984 16.2813 14.593 16.076C14.4024 15.856 14.307 15.5847 14.307 15.262C14.307 14.4113 14.527 13.6487 14.967 12.974C15.407 12.2993 16.0084 11.7713 16.771 11.39C17.5337 10.994 18.3844 10.796 19.323 10.796C20.1884 10.796 20.9657 10.9867 21.655 11.368C22.359 11.7347 22.909 12.2407 23.305 12.886C23.7157 13.5167 23.921 14.2353 23.921 15.042C23.921 15.614 23.789 16.12 23.525 16.56C23.2757 17 22.953 17.3813 22.557 17.704C22.161 18.012 21.743 18.2687 21.303 18.474C22.0804 18.738 22.711 19.0973 23.195 19.552C23.679 19.992 24.031 20.5053 24.251 21.092C24.4857 21.6787 24.603 22.3167 24.603 23.006C24.603 23.9593 24.361 24.8173 23.877 25.58C23.393 26.328 22.7477 26.922 21.941 27.362C21.1344 27.7873 20.247 28 19.279 28Z" fill="white"/>
</g>
<defs>
<clipPath id="clip0_1082_3811">
<rect width="40" height="40" fill="white"/>
</clipPath>
</defs>
</svg>
