<svg width="40" height="40" viewBox="0 0 40 40" fill="none" xmlns="http://www.w3.org/2000/svg">
<g clip-path="url(#clip0_1082_3804)">
<path d="M27.0523 2H13.168C10.9642 2 8.87052 3.2 7.7686 5.05455L0.826446 16.9455C-0.275482 18.8 -0.275482 21.0909 0.826446 23.0545L7.7686 34.9455C8.87052 36.8 10.854 38 13.0579 38H26.9421C29.146 38 31.1295 36.8 32.2314 34.9455L39.1736 23.0545C40.2755 21.2 40.2755 18.9091 39.1736 16.9455L32.3416 5.05455C31.2397 3.2 29.2562 2 27.0523 2Z" fill="#2FC9B9"/>
<path d="M19.9836 28C19.6903 28 19.4336 27.89 19.2136 27.67C18.9936 27.45 18.8836 27.186 18.8836 26.878V13.458L17.2776 14.14C17.0283 14.2427 16.7936 14.294 16.5736 14.294C16.251 14.294 15.9796 14.1913 15.7596 13.986C15.5543 13.7807 15.4516 13.5167 15.4516 13.194C15.4516 12.9593 15.5103 12.7467 15.6276 12.556C15.745 12.3653 15.9283 12.226 16.1776 12.138L19.6096 10.906C19.683 10.8767 19.7563 10.8547 19.8296 10.84C19.903 10.8253 19.969 10.818 20.0276 10.818C20.365 10.818 20.629 10.928 20.8196 11.148C21.025 11.3533 21.1276 11.6247 21.1276 11.962V26.878C21.1276 27.186 21.0176 27.45 20.7976 27.67C20.5776 27.89 20.3063 28 19.9836 28Z" fill="white"/>
</g>
<defs>
<clipPath id="clip0_1082_3804">
<rect width="40" height="40" fill="white"/>
</clipPath>
</defs>
</svg>
