<svg width="40" height="40" viewBox="0 0 40 40" fill="none" xmlns="http://www.w3.org/2000/svg">
<g clip-path="url(#clip0_1082_3807)">
<path d="M27.0523 2H13.168C10.9642 2 8.87052 3.2 7.7686 5.05455L0.826446 16.9455C-0.275482 18.8 -0.275482 21.0909 0.826446 23.0545L7.7686 34.9455C8.87052 36.8 10.854 38 13.0579 38H26.9421C29.146 38 31.1295 36.8 32.2314 34.9455L39.1736 23.0545C40.2755 21.2 40.2755 18.9091 39.1736 16.9455L32.3416 5.05455C31.2397 3.2 29.2562 2 27.0523 2Z" fill="#2FC9B9"/>
<path d="M15.0852 28C14.7625 28 14.4912 27.89 14.2712 27.67C14.0659 27.45 13.9632 27.186 13.9632 26.878C13.9632 26.5553 14.0659 26.2913 14.2712 26.086L20.5192 18.782C20.9592 18.2687 21.2965 17.7847 21.5312 17.33C21.7805 16.8753 21.9052 16.4427 21.9052 16.032C21.9052 15.3867 21.7952 14.8293 21.5752 14.36C21.3552 13.8907 21.0399 13.5313 20.6292 13.282C20.2185 13.018 19.7272 12.886 19.1552 12.886C18.5979 12.886 18.0919 13.0327 17.6372 13.326C17.1972 13.6047 16.8452 13.986 16.5812 14.47C16.3319 14.9393 16.2072 15.46 16.2072 16.032C16.2072 16.3253 16.0972 16.582 15.8772 16.802C15.6719 17.022 15.4079 17.132 15.0852 17.132C14.7772 17.132 14.5132 17.022 14.2932 16.802C14.0732 16.582 13.9632 16.3253 13.9632 16.032C13.9632 15.0347 14.1905 14.1473 14.6452 13.37C15.0999 12.578 15.7159 11.9547 16.4932 11.5C17.2852 11.0453 18.1725 10.818 19.1552 10.818C20.1525 10.818 21.0179 11.0307 21.7512 11.456C22.4845 11.8813 23.0492 12.4827 23.4452 13.26C23.8559 14.0373 24.0612 14.9613 24.0612 16.032C24.0612 16.5013 23.9585 16.978 23.7532 17.462C23.5625 17.946 23.3132 18.408 23.0052 18.848C22.7119 19.288 22.4112 19.684 22.1032 20.036L17.0652 25.756H23.2252C23.5479 25.756 23.8192 25.8733 24.0392 26.108C24.2592 26.328 24.3692 26.5847 24.3692 26.878C24.3692 27.186 24.2592 27.45 24.0392 27.67C23.8192 27.89 23.5479 28 23.2252 28H15.0852Z" fill="white"/>
</g>
<defs>
<clipPath id="clip0_1082_3807">
<rect width="40" height="40" fill="white"/>
</clipPath>
</defs>
</svg>
