<svg width="67" height="47" viewBox="0 0 67 47" fill="none" xmlns="http://www.w3.org/2000/svg">
<g clip-path="url(#clip0_1368_3226)">
<path d="M19.7338 8.59147L19.336 9.33687L14.8003 12.5931L15.0391 12.4754L10.5432 13.6524H10.8217L6.80332 13.5347C5.05272 13.2993 4.41614 12.3185 4.97315 10.6315C6.64417 9.33687 7.00225 8.98379 6.00759 9.6115L17.9435 8.04222C17.466 7.80682 17.3467 7.80682 17.6252 8.04222C17.9037 8.27761 17.8241 8.23838 17.4262 7.84606C17.0284 7.02218 17.4262 8.19915 17.1477 7.17911L0.994528 12.6716C1.3526 12.9855 1.43218 13.0247 1.19346 12.8285C0.795597 12.5147 0.835383 12.0831 1.27303 11.4554L16.9488 8.39531C17.3467 8.94455 16.909 8.00299 16.8692 7.80682C16.9488 8.39531 16.8692 7.76759 16.9488 7.45374C17.0682 6.94372 16.9488 6.5514 16.9488 7.17911C17.3069 6.70833 17.3069 6.6691 16.9488 7.06142C16.6703 7.4145 16.3122 7.6499 15.9144 7.84606L11.4583 9.33687C10.9809 9.41534 10.5034 9.41534 10.026 9.37611C9.66792 9.37611 8.55391 8.94455 9.66792 9.41534C10.1851 9.65073 10.5432 9.88612 11.2196 10.6708C13.6863 13.4955 14.2831 18.2033 14.681 21.8519C15.0789 25.5005 14.8401 29.0706 13.9648 32.7584C13.7261 33.7 13.4476 34.6808 13.0895 35.5831C12.9702 35.9362 12.811 36.2501 12.6917 36.5639C12.0949 38.0155 13.1293 35.897 12.3336 37.2701C11.896 38.0155 11.4981 38.8001 11.0207 39.5456C10.7422 39.9771 10.4239 40.4087 10.1056 40.801C9.94643 40.9971 8.91199 42.1349 9.7475 41.2325C8.91199 42.0956 7.79797 43.2726 8.15605 44.6065C8.51412 45.8619 10.1056 46.5681 11.2594 46.7643C14.9993 47.4312 19.6145 46.2935 22.5189 43.7826C31.7493 35.8185 33.3407 23.1073 30.5557 11.8477C29.8395 8.98379 28.646 5.88445 26.4975 3.72669C23.6727 0.901983 19.4951 -0.196514 15.4369 -0.000354161C10.4636 0.27427 4.57529 2.19664 1.55154 6.4337C-0.358204 9.14071 -0.596921 12.1223 1.27303 14.9078C2.62576 16.9479 7.28075 16.3986 9.07113 16.0456C11.8164 15.4963 15.3176 14.2801 16.909 11.8477C18.1026 10.0431 18.3413 7.72836 16.5907 6.19831C13.9648 3.92285 9.50878 4.66826 6.52481 5.64906C4.33657 6.39447 -0.437776 8.55223 0.397735 11.6516C2.74512 20.518 17.4262 16.7125 20.9672 10.5531C22.8372 7.29681 20.3704 5.09981 17.2273 4.51133C14.2831 3.92285 10.9013 4.55056 8.19583 5.76676C6.20652 6.62986 3.18277 8.23838 2.90427 10.71C2.54619 14.3586 7.55925 14.6332 10.1851 14.2801C12.3734 13.9663 14.681 13.3778 16.5509 12.1616C17.7445 11.3769 19.5747 10.2 19.7338 8.66993V8.59147Z" fill="#E1E1E4"/>
<path d="M54.8647 8.59147L54.4668 9.33687L49.9312 12.5931L50.1699 12.4754L45.6741 13.6524H45.9526L41.9342 13.5347C40.1836 13.2993 39.547 12.3185 40.104 10.6315C41.775 9.33687 42.1331 8.98379 41.1385 9.6115L53.0743 8.04222C52.5969 7.80682 52.4775 7.80682 52.756 8.04222C53.0345 8.27761 52.955 8.23838 52.5571 7.84606C52.1592 7.02218 52.5571 8.19915 52.2786 7.17911L36.0458 12.6716C36.4039 12.9855 36.4835 13.0247 36.2447 12.8285C35.8469 12.5147 35.8867 12.0831 36.3243 11.4554L52.0001 8.39531C52.398 8.94455 51.9603 8.00299 51.9205 7.80682C52.0001 8.39531 51.9205 7.76759 52.0001 7.45374C52.1194 6.94372 52.0001 6.5514 52.0001 7.17911C52.3582 6.70833 52.3582 6.6691 52.0001 7.06142C51.7216 7.4145 51.3635 7.6499 50.9657 7.84606L46.5096 9.33687C46.0322 9.41534 45.5547 9.41534 45.0773 9.37611C44.7192 9.37611 43.6052 8.94455 44.7192 9.41534C45.2364 9.65073 45.5945 9.88612 46.2709 10.6708C48.7376 13.4955 49.3344 18.2033 49.7323 21.8519C50.1301 25.5005 49.8914 29.0706 49.0161 32.7584C48.7774 33.7 48.4989 34.6808 48.1408 35.5831C48.0215 35.9362 47.8623 36.2501 47.743 36.5639C47.1462 38.0155 48.1806 35.897 47.3849 37.2701C46.9472 38.0155 46.5494 38.8001 46.0719 39.5456C45.7934 39.9771 45.4752 40.4087 45.1569 40.801C44.9977 40.9971 43.9633 42.1349 44.7988 41.2325C43.9633 42.0956 42.8493 43.2726 43.2073 44.6065C43.5654 45.8619 45.1569 46.5681 46.3107 46.7643C50.0506 47.4312 54.6658 46.2935 57.5702 43.7826C66.8006 35.8185 68.392 23.1073 65.607 11.8477C64.8908 8.98379 63.6972 5.88445 61.5488 3.72669C58.7638 0.901983 54.5862 -0.196514 50.5678 -0.000354161C45.5547 0.27427 39.7061 2.15741 36.6824 6.4337C34.7727 9.14071 34.5339 12.1223 36.4039 14.9078C37.7566 16.9479 42.4116 16.3986 44.202 16.0456C46.9472 15.4963 50.4484 14.2801 52.0399 11.8477C53.2335 10.0431 53.4722 7.72836 51.7216 6.19831C49.0957 3.92285 44.6396 4.66826 41.6557 5.64906C39.4276 6.39447 34.6533 8.55223 35.449 11.6516C37.7964 20.518 52.4775 16.7125 56.0185 10.5531C57.8885 7.29681 55.4217 5.09981 52.2786 4.51133C49.3344 3.92285 45.9526 4.55056 43.2471 5.76676C41.2578 6.62986 38.2341 8.23838 37.9556 10.71C37.5975 14.3586 42.6105 14.6332 45.2364 14.2801C47.4247 13.9663 49.7323 13.3778 51.6022 12.1616C52.7958 11.3769 54.626 10.2 54.7851 8.66993L54.8647 8.59147Z" fill="#E1E1E4"/>
</g>
<defs>
<clipPath id="clip0_1368_3226">
<rect width="67" height="47" fill="white"/>
</clipPath>
</defs>
</svg>
