<svg width="33" height="33" viewBox="0 0 33 33" fill="none" xmlns="http://www.w3.org/2000/svg">
<g clip-path="url(#clip0_1082_4037)">
<path d="M0.5 15.86C0.5 8.6192 0.5 4.99884 2.74942 2.74942C4.99884 0.5 8.6192 0.5 15.86 0.5H17.14C24.3808 0.5 28.0011 0.5 30.2506 2.74942C32.5 4.99884 32.5 8.6192 32.5 15.86V17.14C32.5 24.3808 32.5 28.0011 30.2506 30.2506C28.0011 32.5 24.3808 32.5 17.14 32.5H15.86C8.6192 32.5 4.99884 32.5 2.74942 30.2506C0.5 28.0011 0.5 24.3808 0.5 17.14V15.86Z" fill="#0077FF"/>
<path d="M17.527 23.5534C10.2337 23.5534 6.07372 18.5534 5.90039 10.2334H9.55372C9.67372 16.3401 12.367 18.9267 14.5003 19.4601V10.2334H17.9405V15.5001C20.0471 15.2734 22.2602 12.8734 23.0069 10.2334H26.4469C25.8736 13.4867 23.4736 15.8867 21.7669 16.8734C23.4736 17.6734 26.2071 19.7667 27.2471 23.5534H23.4603C22.6469 21.0201 20.6205 19.0601 17.9405 18.7934V23.5534H17.527Z" fill="white"/>
</g>
<defs>
<clipPath id="clip0_1082_4037">
<rect width="32" height="32" fill="white" transform="translate(0.5 0.5)"/>
</clipPath>
</defs>
</svg>
