<svg width="28" height="29" viewBox="0 0 28 29" fill="none" xmlns="http://www.w3.org/2000/svg">
<path fill-rule="evenodd" clip-rule="evenodd" d="M17.6528 6.7672C18.0575 6.3914 18.6902 6.41485 19.066 6.81957L20.0685 7.89924C21.2697 9.1928 22.6157 10.3438 24.0801 11.3295L27.558 13.6704C27.834 13.8562 27.9996 14.1672 27.9996 14.5C27.9996 14.8328 27.834 15.1438 27.558 15.3296L24.0801 17.6705C22.6157 18.6562 21.2697 19.8072 20.0685 21.1008L19.066 22.1804C18.6902 22.5851 18.0575 22.6086 17.6528 22.2328C17.2481 21.857 17.2246 21.2243 17.6004 20.8196L18.6029 19.7399C19.9085 18.3338 21.3716 17.0828 22.9633 16.0114L23.723 15.5H1.00049C0.448204 15.5 0.000488281 15.0523 0.000488281 14.5C0.000488281 13.9477 0.448204 13.5 1.00049 13.5H23.723L22.9633 12.9886C21.3716 11.9172 19.9085 10.6662 18.6029 9.26011L17.6004 8.18044C17.2246 7.77573 17.2481 7.14299 17.6528 6.7672Z" fill="#5F5F67"/>
</svg>
