<svg width="40" height="40" viewBox="0 0 40 40" fill="none" xmlns="http://www.w3.org/2000/svg">
<path d="M0 19.2C0 10.149 0 5.62355 2.81177 2.81177C5.62355 0 10.149 0 19.2 0H20.8C29.851 0 34.3764 0 37.1882 2.81177C40 5.62355 40 10.149 40 19.2V20.8C40 29.851 40 34.3764 37.1882 37.1882C34.3764 40 29.851 40 20.8 40H19.2C10.149 40 5.62355 40 2.81177 37.1882C0 34.3764 0 29.851 0 20.8V19.2Z" fill="#ED812B"/>
<path fill-rule="evenodd" clip-rule="evenodd" d="M19.987 20.3206C17.0385 20.3206 14.6406 18.0062 14.6406 15.1611C14.6406 12.315 17.0385 10 19.987 10C22.936 10 25.3333 12.315 25.3333 15.1611C25.3333 18.0062 22.936 20.3206 19.987 20.3206ZM19.9871 13.0254C21.2078 13.0254 22.2007 13.9836 22.2007 15.1619C22.2007 16.3393 21.2078 17.2981 19.9871 17.2981C18.7673 17.2981 17.7734 16.3393 17.7734 15.1619C17.7734 13.9836 18.7673 13.0254 19.9871 13.0254ZM25.1516 27.4194L22.1629 24.5341C23.2512 24.2948 24.3007 23.8792 25.2674 23.2931C25.999 22.8478 26.2194 21.9144 25.7585 21.2082C25.2978 20.5004 24.3314 20.2874 23.5986 20.7326C21.4086 22.062 18.5891 22.0617 16.4004 20.7326C15.6675 20.2874 14.7008 20.5004 14.2411 21.2082C13.7802 21.915 13.9999 22.8478 14.7315 23.2931C15.6982 23.8786 16.7478 24.2948 17.836 24.5341L14.847 27.4194C14.236 28.0098 14.236 28.967 14.8476 29.5574C15.1538 29.8523 15.5543 29.9999 15.9548 29.9999C16.3559 29.9999 16.7571 29.8523 17.0632 29.5574L19.9991 26.7222L22.9377 29.5574C23.5486 30.1478 24.54 30.1478 25.1516 29.5574C25.7639 28.967 25.7639 28.0092 25.1516 27.4194Z" fill="white"/>
</svg>
