<svg width="40" height="40" viewBox="0 0 40 40" fill="none" xmlns="http://www.w3.org/2000/svg">
<path d="M0 19.2C0 10.149 0 5.62355 2.81177 2.81177C5.62355 0 10.149 0 19.2 0H20.8C29.851 0 34.3764 0 37.1882 2.81177C40 5.62355 40 10.149 40 19.2V20.8C40 29.851 40 34.3764 37.1882 37.1882C34.3764 40 29.851 40 20.8 40H19.2C10.149 40 5.62355 40 2.81177 37.1882C0 34.3764 0 29.851 0 20.8V19.2Z" fill="#0077FF"/>
<path d="M21.027 27.0544C13.7337 27.0544 9.57372 22.0544 9.40039 13.7344H13.0537C13.1737 19.841 15.867 22.4277 18.0003 22.961V13.7344H21.4405V19.001C23.5471 18.7744 25.7602 16.3744 26.5069 13.7344H29.9469C29.3736 16.9877 26.9736 19.3877 25.2669 20.3744C26.9736 21.1744 29.7071 23.2677 30.7471 27.0544H26.9603C26.1469 24.521 24.1205 22.561 21.4405 22.2944V27.0544H21.027Z" fill="white"/>
</svg>
