<svg width="92" height="92" viewBox="0 0 92 92" fill="none" xmlns="http://www.w3.org/2000/svg">
<path d="M46 87C68.6437 87 87 68.6437 87 46C87 23.3563 68.6437 5 46 5C23.3563 5 5 23.3563 5 46C5 68.6437 23.3563 87 46 87Z" fill="#00B1AA"/>
<path d="M38 42.93C38 38.1031 38 35.6896 39.5564 34.8352C41.1127 33.9808 43.1489 35.2766 47.2213 37.8681L52.0455 40.938C55.6232 43.2148 57.4121 44.3532 57.4121 46C57.4121 47.6468 55.6232 48.7852 52.0455 51.062L47.2213 54.1319C43.1489 56.7234 41.1127 58.0192 39.5564 57.1648C38 56.3104 38 53.8969 38 49.07V42.93Z" fill="white"/>
</svg>
