<svg width="80" height="80" viewBox="0 0 80 80" fill="none" xmlns="http://www.w3.org/2000/svg">
<path d="M46.8331 45.4937L46.3443 46.3661L46.3444 46.3662L46.8331 45.4937ZM25.1668 45.4937L25.6556 46.3662L25.6556 46.3661L25.1668 45.4937ZM44 27C44 29.5672 43.4184 32.3707 42.114 34.4963C40.8362 36.5787 38.8839 38 36 38V40C39.693 40 42.2408 38.1137 43.8187 35.5423C45.3701 33.0141 46 29.8175 46 27H44ZM36 19C40.4489 19 44 22.1977 44 27H46C46 21.0327 41.4921 17 36 17V19ZM28 27C28 22.1977 31.5511 19 36 19V17C30.5079 17 26 21.0327 26 27H28ZM36 38C33.1161 38 31.1638 36.5787 29.886 34.4963C28.5816 32.3707 28 29.5672 28 27H26C26 29.8175 26.6299 33.0141 28.1813 35.5423C29.7592 38.1137 32.307 40 36 40V38ZM50 51C50 52.4584 49.6887 53.5644 49.1469 54.4216C48.6057 55.2777 47.7859 55.963 46.6389 56.4993C44.294 57.5959 40.7419 58 36 58V60C40.7581 60 44.706 59.6111 47.4861 58.3111C48.9016 57.6491 50.0505 56.7353 50.8375 55.4901C51.6238 54.246 52 52.7485 52 51H50ZM46.3444 46.3662C48.9044 47.8002 50 49.4978 50 51H52C52 48.4529 50.1719 46.2178 47.3218 44.6213L46.3444 46.3662ZM36 44C40.1687 44 43.8183 44.9508 46.3443 46.3661L47.3219 44.6213C44.4451 43.0095 40.4459 42 36 42V44ZM25.6556 46.3661C28.1818 44.9508 31.8313 44 36 44V42C31.5541 42 27.5549 43.0095 24.678 44.6213L25.6556 46.3661ZM22 51C22 49.4978 23.0956 47.8002 25.6556 46.3662L24.6781 44.6213C21.8281 46.2178 20 48.4529 20 51H22ZM36 58C31.2581 58 27.706 57.5959 25.3611 56.4994C24.2141 55.963 23.3943 55.2777 22.8531 54.4216C22.3113 53.5644 22 52.4584 22 51H20C20 52.7485 20.3762 54.246 21.1625 55.4901C21.9495 56.7353 23.0984 57.6491 24.5139 58.3111C27.294 59.6111 31.2419 60 36 60V58Z" fill="#2FC9B9"/>
<path fill-rule="evenodd" clip-rule="evenodd" d="M59 32.5C59 31.9477 58.5523 31.5 58 31.5C57.4477 31.5 57 31.9477 57 32.5V36.5002L53 36.5002C52.4477 36.5003 52 36.948 52 37.5003C52 38.0525 52.4477 38.5003 53 38.5002L57 38.5002V42.5C57 43.0523 57.4477 43.5 58 43.5C58.5523 43.5 59 43.0523 59 42.5V38.5001L63.0001 38.5001C63.5523 38.5001 64.0001 38.0523 64 37.5C64 36.9478 63.5523 36.5001 63 36.5001L59 36.5001V32.5Z" fill="#2FC9B9"/>
<path d="M3.70332 44.4653C2.12224 41.6984 2.12224 38.3016 3.70332 35.5348L17.989 10.5348C19.5914 7.73057 22.5735 6 25.8032 6L54.1968 6C57.4265 6 60.4086 7.73057 62.011 10.5347L76.2967 35.5347C77.8778 38.3016 77.8778 41.6984 76.2967 44.4652L62.011 69.4652C60.4086 72.2694 57.4265 74 54.1968 74L25.8032 74C22.5735 74 19.5914 72.2694 17.989 69.4652L3.70332 44.4653Z" stroke="#2FC9B9" stroke-width="2"/>
</svg>
