<svg width="80" height="80" viewBox="0 0 80 80" fill="none" xmlns="http://www.w3.org/2000/svg">
<path d="M3.70332 44.4653C2.12224 41.6984 2.12224 38.3016 3.70332 35.5348L17.989 10.5348C19.5914 7.73057 22.5735 6 25.8032 6L54.1968 6C57.4265 6 60.4086 7.73057 62.011 10.5347L76.2967 35.5347C77.8778 38.3016 77.8778 41.6984 76.2967 44.4652L62.011 69.4652C60.4086 72.2694 57.4265 74 54.1968 74L25.8032 74C22.5735 74 19.5914 72.2694 17.989 69.4652L3.70332 44.4653Z" stroke="#2FC9B9" stroke-width="2"/>
<path d="M41.8105 23.8574L45.4176 31.5426C45.7009 32.1463 46.2666 32.5691 46.9259 32.6699L55.1525 33.9271C56.7617 34.173 57.4187 36.1357 56.2819 37.3008L50.2049 43.5291C49.7616 43.9835 49.5603 44.6213 49.6625 45.2479L51.0798 53.935C51.3486 55.5827 49.5994 56.8151 48.1383 56.0074L40.9676 52.0435C40.3655 51.7107 39.6345 51.7107 39.0324 52.0435L31.8617 56.0074C30.4006 56.8151 28.6514 55.5827 28.9202 53.935L30.3375 45.2479C30.4397 44.6213 30.2384 43.9835 29.7951 43.5291L23.7181 37.3008C22.5813 36.1357 23.2383 34.173 24.8475 33.9271L33.0741 32.6699C33.7334 32.5691 34.2991 32.1463 34.5824 31.5426L38.1895 23.8574C38.9093 22.3238 41.0907 22.3238 41.8105 23.8574Z" stroke="#2FC9B9" stroke-width="2"/>
</svg>
