<svg width="80" height="80" viewBox="0 0 80 80" fill="none" xmlns="http://www.w3.org/2000/svg">
<path d="M3.70332 44.4653C2.12224 41.6984 2.12224 38.3016 3.70332 35.5348L17.989 10.5348C19.5914 7.73057 22.5735 6 25.8032 6L54.1968 6C57.4265 6 60.4086 7.73057 62.011 10.5347L76.2967 35.5347C77.8778 38.3016 77.8778 41.6984 76.2967 44.4652L62.011 69.4652C60.4086 72.2694 57.4265 74 54.1968 74L25.8032 74C22.5735 74 19.5914 72.2694 17.989 69.4652L3.70332 44.4653Z" stroke="#2FC9B9" stroke-width="2"/>
<path d="M37.1036 22.1555L28.1466 26.3792C25.5558 27.601 23.8461 30.3369 24.011 33.3399C24.6555 45.0801 27.8958 50.2487 36.3157 56.2967C38.5462 57.8989 41.4864 57.9028 43.7153 56.298C52.1611 50.2171 55.2855 44.9755 55.9867 33.3806C56.1695 30.3577 54.457 27.5927 51.8481 26.3625L42.9266 22.1555C41.073 21.2815 38.9572 21.2815 37.1036 22.1555Z" stroke="#2FC9B9" stroke-width="2" stroke-linejoin="round"/>
<path d="M36 39L38.7461 42.4601C39.1595 42.9809 39.9566 42.9607 40.3431 42.4196L46 34.5" stroke="#2FC9B9" stroke-width="2" stroke-linecap="round"/>
</svg>
