<svg width="13" height="14" viewBox="0 0 13 14" fill="none" xmlns="http://www.w3.org/2000/svg">
<path d="M0 7C0 3.75962 0 2.13944 0.779377 1.28144C1.21091 0.806367 1.78343 0.482213 2.41282 0.356595C3.54954 0.129722 4.93884 0.963302 7.71744 2.63046V2.63046C10.3595 4.21569 11.6805 5.00831 12.0255 6.08315C12.2169 6.6794 12.2169 7.3206 12.0255 7.91685C11.6805 8.99169 10.3595 9.78431 7.71744 11.3695V11.3695C4.93884 13.0367 3.54954 13.8703 2.41282 13.6434C1.78343 13.5178 1.21091 13.1936 0.779377 12.7186C0 11.8606 0 10.2404 0 7V7Z" fill="#FFFFFF"/>
</svg>
