<svg width="80" height="80" viewBox="0 0 80 80" fill="none" xmlns="http://www.w3.org/2000/svg">
<path d="M3.70332 35.5347L17.989 10.5348C19.5914 7.73057 22.5735 6 25.8032 6L54.1968 6C57.4265 6 60.4086 7.73057 62.011 10.5347L76.2967 35.5347C77.8778 38.3016 77.8778 41.6984 76.2967 44.4652L62.011 69.4652C60.4086 72.2694 57.4265 74 54.1968 74L25.8032 74C22.5735 74 19.5914 72.2694 17.989 69.4652L3.70332 44.4653C2.12224 41.6984 2.12224 38.3016 3.70332 35.5347Z" stroke="#2FC9B9" stroke-width="2"/>
<path d="M54.9981 44.483V25C54.9981 22.8 53.1981 21 50.9981 21H44.9981H32.9981H26.9981C24.7981 21 22.9981 22.8 22.9981 25V42.431C22.6511 42.582 22.3141 42.764 21.9981 43C19.7921 44.654 19.3441 47.794 20.9981 50.001C21.3051 50.409 28.6231 60 38.9981 60H55.9981C57.1027 60 57.9981 59.1046 57.9981 58V49C57.9981 47.263 56.8771 45.694 54.9981 44.483ZM55.9981 57C55.9981 57.5523 55.5504 58 54.9981 58H38.9981C29.6111 58 22.8801 49.176 22.5981 48.801C21.6061 47.477 21.8751 45.593 23.1981 44.601C23.7371 44.197 24.3691 44.002 24.9961 44.002C25.9081 44.002 26.8091 44.415 27.3961 45.195C27.4461 45.264 32.6251 52 38.9981 52H45.9981C46.5504 52 46.9981 51.5523 46.9981 51V51C46.9981 50.4477 46.5504 50 45.9981 50H39.9981H38.9981C37.9941 50 37.0171 49.784 36.0891 49.442C35.3841 49.182 34.7061 48.85 34.0711 48.472C34.6781 46.26 38.9951 44 44.9981 44C51.4801 44 55.9981 46.635 55.9981 49V57ZM42.9981 23V28C42.9981 28.5523 42.5504 29 41.9981 29H35.9981C35.4459 29 34.9981 28.5523 34.9981 28V23H42.9981ZM26.9981 23H32.9981V28C32.9981 29.6569 34.3413 31 35.9981 31H41.9981C43.655 31 44.9981 29.6569 44.9981 28V23H50.9981C52.1011 23 52.9981 23.897 52.9981 25V43.453C50.8051 42.542 48.0441 42 44.9981 42C38.8001 42 33.7431 44.224 32.3681 47.302C30.3381 45.722 29.0201 44.029 28.9981 43.999C28.0181 42.695 26.5171 42.024 24.9981 42.022V25C24.9981 23.897 25.8951 23 26.9981 23Z" fill="#2FC9B9"/>
</svg>
