<svg width="80" height="80" viewBox="0 0 80 80" fill="none" xmlns="http://www.w3.org/2000/svg">
<path d="M47.5738 21.1152L47.8614 20.1575H47.8614L47.5738 21.1152ZM49.7016 29V30H50.5228L50.6825 29.1945L49.7016 29ZM41.7527 23.4699L41.4605 24.4263L42.0199 24.5971L42.443 24.1934L41.7527 23.4699ZM38.2473 23.4699L37.557 24.1934L37.9801 24.5971L38.5395 24.4263L38.2473 23.4699ZM32.4262 21.1152L32.1386 20.1575L32.4262 21.1152ZM30.2984 29L29.3175 29.1945L29.4772 30H30.2984V29ZM39 29V30V29ZM41 29V28V29ZM43 29V30V29ZM47.2862 22.073C48.1731 22.3393 48.7121 23.2204 48.9158 24.6969C49.1132 26.1273 48.9289 27.7553 48.7207 28.8055L50.6825 29.1945C50.9125 28.034 51.1369 26.1618 50.897 24.4235C50.6636 22.7314 49.9195 20.7755 47.8614 20.1575L47.2862 22.073ZM42.443 24.1934C43.0151 23.6476 43.9051 22.9789 44.8537 22.5215C45.8352 22.0483 46.6867 21.893 47.2862 22.073L47.8614 20.1575C46.5381 19.7602 45.1153 20.1751 43.9851 20.72C42.822 21.2807 41.7629 22.078 41.0624 22.7464L42.443 24.1934ZM38.5395 24.4263C39.4912 24.1355 40.5088 24.1355 41.4605 24.4263L42.0448 22.5135C40.7123 22.1064 39.2877 22.1064 37.9552 22.5135L38.5395 24.4263ZM32.7138 22.073C33.3133 21.893 34.1648 22.0483 35.1463 22.5215C36.0949 22.9789 36.9849 23.6476 37.557 24.1934L38.9376 22.7464C38.2371 22.078 37.178 21.2807 36.0149 20.72C34.8847 20.1751 33.4619 19.7602 32.1386 20.1575L32.7138 22.073ZM31.2793 28.8055C31.0711 27.7553 30.8868 26.1273 31.0842 24.6969C31.2879 23.2204 31.8269 22.3393 32.7138 22.073L32.1386 20.1575C30.0805 20.7755 29.3364 22.7314 29.103 24.4235C28.8631 26.1618 29.0875 28.034 29.3175 29.1945L31.2793 28.8055ZM37 28H30.2984V30H37V28ZM39 28H37V30H39V28ZM41 28L39 28V30L41 30V28ZM43 28L41 28V30L43 30V28ZM49.7016 28L43 28V30L49.7016 30V28Z" fill="#2FC9B9"/>
<path d="M25 38V38C23.3431 38 22 36.6569 22 35V33.5C22 32.1022 22 31.4033 22.2284 30.8519C22.5328 30.1169 23.1169 29.5328 23.8519 29.2284C24.4033 29 25.1022 29 26.5 29H53.5C54.8978 29 55.5967 29 56.1481 29.2284C56.8831 29.5328 57.4672 30.1169 57.7716 30.8519C58 31.4033 58 32.1022 58 33.5V35C58 36.6569 56.6569 38 55 38V38M25 38V51.2C25 52.8802 25 53.7202 25.327 54.362C25.6146 54.9265 26.0735 55.3854 26.638 55.673C27.2798 56 28.1198 56 29.8 56H36M25 38H36M55 38V51.2C55 52.8802 55 53.7202 54.673 54.362C54.3854 54.9265 53.9265 55.3854 53.362 55.673C52.7202 56 51.8802 56 50.2 56H44M55 38H44M36 38V56M36 38H44M36 56H44M44 38V56" stroke="#2FC9B9" stroke-width="2"/>
<path d="M3.70332 44.4653C2.12224 41.6984 2.12224 38.3016 3.70332 35.5348L17.989 10.5348C19.5914 7.73057 22.5735 6 25.8032 6L54.1968 6C57.4265 6 60.4086 7.73057 62.011 10.5347L76.2967 35.5347C77.8778 38.3016 77.8778 41.6984 76.2967 44.4652L62.011 69.4652C60.4086 72.2694 57.4265 74 54.1968 74L25.8032 74C22.5735 74 19.5914 72.2694 17.989 69.4652L3.70332 44.4653Z" stroke="#2FC9B9" stroke-width="2"/>
</svg>
