<svg width="80" height="80" viewBox="0 0 80 80" fill="none" xmlns="http://www.w3.org/2000/svg">
<path d="M3.70332 35.5347L17.989 10.5348C19.5914 7.73057 22.5735 6 25.8032 6L54.1968 6C57.4265 6 60.4086 7.73057 62.011 10.5347L76.2967 35.5347C77.8778 38.3016 77.8778 41.6984 76.2967 44.4652L62.011 69.4652C60.4086 72.2694 57.4265 74 54.1968 74L25.8032 74C22.5735 74 19.5914 72.2694 17.989 69.4652L3.70332 44.4653C2.12224 41.6984 2.12224 38.3016 3.70332 35.5347Z" stroke="#2FC9B9" stroke-width="2"/>
<path d="M58.2173 28.6389L57.2453 28.8738L57.2462 28.8774L58.2173 28.6389ZM54.8681 24.9069L54.5764 25.8634L54.5807 25.8647L54.8681 24.9069ZM25.1318 24.872L24.8504 23.9123L24.8393 23.9157L25.1318 24.872ZM21.7825 28.6389L20.8105 28.404L20.8093 28.409L21.7825 28.6389ZM21.7825 49.0082L20.8099 49.2403L20.8105 49.243L21.7825 49.0082ZM25.1318 52.7402L25.4207 51.7829L25.4191 51.7824L25.1318 52.7402ZM54.8681 52.7751L55.1495 53.7347L55.1554 53.7329L54.8681 52.7751ZM58.2173 49.043L59.1894 49.2779L59.1905 49.2729L58.2173 49.043ZM58.9998 38.8584L57.9998 38.8539V38.8584H58.9998ZM33.6667 53.6893L33.6495 54.6892L33.6667 53.6893ZM46.3333 53.6893L46.3501 54.6892L46.3333 53.6893ZM39.1676 58.9001L38.378 59.5138L39.1676 58.9001ZM40.8282 58.8971L41.6198 59.5082L40.8282 58.8971ZM59.1893 28.404C58.6775 26.2858 57.1621 24.5511 55.1554 23.949L54.5807 25.8647C55.8293 26.2393 56.8806 27.3646 57.2453 28.8738L59.1893 28.404ZM55.1598 23.9503C54.3006 23.6883 52.8986 23.5129 51.3733 23.386C49.8168 23.2566 48.033 23.1709 46.3527 23.1139C44.6707 23.0569 43.0834 23.0285 41.9171 23.0142C41.3337 23.0071 40.8552 23.0036 40.5222 23.0018C40.3556 23.0009 40.2255 23.0004 40.1367 23.0002C40.0924 23.0001 40.0584 23.0001 40.0354 23C40.0238 23 40.0151 23 40.0092 23C40.0062 23 40.0039 23 40.0024 23C40.0016 23 40.001 23 40.0006 23C40.0004 23 40.0002 23 40.0001 23C40 23 39.9999 23 39.9999 24C39.9999 25 39.9999 25 40 25C40.0001 25 40.0002 25 40.0003 25C40.0006 25 40.0011 25 40.0018 25C40.0031 25 40.0052 25 40.0079 25C40.0135 25 40.0218 25 40.0329 25C40.0551 25.0001 40.0882 25.0001 40.1317 25.0002C40.2187 25.0004 40.3469 25.0009 40.5115 25.0018C40.8405 25.0035 41.3145 25.007 41.8927 25.0141C43.0496 25.0282 44.6217 25.0564 46.285 25.1128C47.9501 25.1692 49.6975 25.2535 51.2075 25.3791C52.7487 25.5073 53.9487 25.672 54.5764 25.8634L55.1598 23.9503ZM39.9999 24C39.9999 23 39.9998 23 39.9997 23C39.9996 23 39.9994 23 39.9992 23C39.9988 23 39.9982 23 39.9975 23C39.9959 23 39.9937 23 39.9907 23C39.9848 23 39.976 23 39.9645 23C39.9415 23.0001 39.9075 23.0001 39.8632 23.0002C39.7745 23.0004 39.6444 23.0009 39.4779 23.0017C39.1449 23.0034 38.6665 23.0069 38.0832 23.0137C36.9171 23.0274 35.3301 23.0547 33.6484 23.1095C31.9685 23.1643 30.1853 23.2466 28.6297 23.371C27.1043 23.493 25.7059 23.6615 24.8504 23.9124L25.4132 25.8316C26.0445 25.6464 27.248 25.4879 28.7891 25.3647C30.3001 25.2438 32.0481 25.1627 33.7135 25.1085C35.3772 25.0543 36.9496 25.0271 38.1067 25.0136C38.685 25.0068 39.159 25.0034 39.4882 25.0017C39.6527 25.0008 39.781 25.0004 39.868 25.0002C39.9115 25.0001 39.9447 25.0001 39.9669 25C39.978 25 39.9863 25 39.9919 25C39.9946 25 39.9967 25 39.998 25C39.9987 25 39.9992 25 39.9995 25C39.9997 25 39.9998 25 39.9999 25C39.9999 25 39.9999 25 39.9999 24ZM24.8393 23.9157C22.8655 24.5195 21.3216 26.2886 20.8105 28.404L22.7546 28.8738C23.1199 27.3618 24.2053 26.2011 25.4243 25.8282L24.8393 23.9157ZM20.8093 28.409C20.3941 30.1672 20.1965 32.7991 20.0989 34.9279C20.0494 36.0057 20.0247 36.9779 20.0124 37.6806C20.0062 38.0321 20.0031 38.3167 20.0016 38.5139C20.0008 38.6126 20.0004 38.6894 20.0002 38.7418C20.0001 38.768 20.0001 38.7882 20 38.8019C20 38.8088 20 38.814 20 38.8176C20 38.8194 20 38.8208 20 38.8218C20 38.8223 20 38.8227 20 38.823C20 38.8231 20 38.8233 20 38.8233C20 38.8234 20 38.8235 21 38.8235C22 38.8235 22 38.8236 22 38.8236C22 38.8235 22 38.8235 22 38.8234C22 38.8233 22 38.8231 22 38.8227C22 38.822 22 38.8209 22 38.8194C22 38.8164 22 38.8118 22 38.8055C22 38.7931 22.0001 38.7742 22.0002 38.7493C22.0004 38.6995 22.0007 38.6254 22.0015 38.5297C22.003 38.3382 22.006 38.0601 22.0121 37.7157C22.0242 37.0265 22.0484 36.0738 22.0968 35.0196C22.1947 32.8845 22.3884 30.4241 22.7558 28.8687L20.8093 28.409ZM21 38.8235C20 38.8235 20 38.8236 20 38.8237C20 38.8238 20 38.8239 20 38.8241C20 38.8244 20 38.8247 20 38.8252C20 38.8262 20 38.8276 20 38.8294C20 38.8331 20 38.8384 20 38.8453C20.0001 38.859 20.0001 38.8793 20.0002 38.9056C20.0004 38.9583 20.0008 39.0354 20.0016 39.1345C20.0031 39.3326 20.0062 39.6184 20.0124 39.9713C20.0247 40.6767 20.0494 41.6522 20.0989 42.7321C20.1965 44.8644 20.394 47.498 20.8099 49.2403L22.7552 48.776C22.3885 47.2397 22.1948 44.781 22.0968 42.6406C22.0484 41.5842 22.0242 40.6282 22.0121 39.9363C22.006 39.5906 22.003 39.3112 22.0015 39.1188C22.0007 39.0227 22.0004 38.9483 22.0002 38.8982C22.0001 38.8731 22 38.8542 22 38.8416C22 38.8354 22 38.8307 22 38.8277C22 38.8261 22 38.825 22 38.8243C22 38.824 22 38.8238 22 38.8236C22 38.8236 22 38.8235 22 38.8235C22 38.8235 22 38.8235 21 38.8235ZM20.8105 49.243C21.3223 51.3613 22.8377 53.096 24.8444 53.698L25.4191 51.7824C24.1705 51.4078 23.1192 50.2824 22.7546 48.7733L20.8105 49.243ZM55.1554 53.7329C57.1621 53.1309 58.6775 51.3962 59.1893 49.2779L57.2453 48.8082C56.8806 50.3173 55.8293 51.4427 54.5807 51.8173L55.1554 53.7329ZM59.1905 49.2729C59.6058 47.5147 59.8033 44.8829 59.901 42.754C59.9504 41.6763 59.9751 40.7041 59.9875 40.0014C59.9936 39.6498 59.9967 39.3652 59.9983 39.168C59.9991 39.0694 59.9994 38.9926 59.9996 38.9401C59.9997 38.9139 59.9998 38.8938 59.9998 38.88C59.9998 38.8732 59.9998 38.8679 59.9998 38.8643C59.9998 38.8625 59.9998 38.8611 59.9998 38.8601C59.9998 38.8596 59.9998 38.8592 59.9998 38.8589C59.9998 38.8588 59.9998 38.8587 59.9998 38.8586C59.9998 38.8585 59.9998 38.8584 58.9998 38.8584C57.9998 38.8584 57.9998 38.8584 57.9998 38.8584C57.9998 38.8584 57.9998 38.8584 57.9998 38.8585C57.9998 38.8586 57.9998 38.8589 57.9998 38.8592C57.9998 38.8599 57.9998 38.861 57.9998 38.8625C57.9998 38.8655 57.9998 38.8702 57.9998 38.8764C57.9998 38.8889 57.9997 38.9077 57.9997 38.9326C57.9995 38.9825 57.9991 39.0565 57.9983 39.1523C57.9968 39.3437 57.9938 39.6218 57.9878 39.9662C57.9757 40.6554 57.9514 41.6081 57.9031 42.6623C57.8051 44.7974 57.6114 47.2579 57.2441 48.8132L59.1905 49.2729ZM58.9998 38.8584C59.9998 38.8629 59.9998 38.8629 59.9998 38.8627C59.9998 38.8627 59.9998 38.8625 59.9998 38.8624C59.9998 38.8621 59.9998 38.8617 59.9998 38.8612C59.9998 38.8602 59.9998 38.8588 59.9999 38.857C59.9999 38.8533 59.9999 38.848 59.9999 38.8411C59.9999 38.8273 60 38.807 60 38.7806C60 38.7279 60 38.6506 59.9996 38.5514C59.9988 38.3531 59.9969 38.067 59.9919 37.7136C59.982 37.0072 59.9603 36.0301 59.9128 34.9474C59.819 32.8102 59.6217 30.1644 59.1884 28.4004L57.2462 28.8774C57.6267 30.4269 57.8207 32.8909 57.9147 35.035C57.9611 36.093 57.9824 37.0495 57.9921 37.7416C57.997 38.0874 57.9989 38.3667 57.9996 38.5589C58 38.6551 58 38.7294 58 38.7794C58 38.8045 57.9999 38.8234 57.9999 38.8359C57.9999 38.8421 57.9999 38.8468 57.9999 38.8498C57.9999 38.8513 57.9999 38.8524 57.9999 38.8531C57.9999 38.8534 57.9999 38.8537 57.9999 38.8538C57.9999 38.8539 57.9999 38.8539 57.9999 38.8539C57.9999 38.8539 57.9999 38.8539 58.9998 38.8584ZM24.8429 53.6976C27.019 54.3543 29.9092 54.6251 33.6495 54.6892L33.6838 52.6895C29.9774 52.626 27.3187 52.3556 25.4207 51.7829L24.8429 53.6976ZM33.6495 54.6892C33.6106 54.6885 33.6476 54.6807 33.7836 54.7463C33.9107 54.8077 34.0762 54.9097 34.2785 55.0608C34.6838 55.3633 35.157 55.8018 35.6593 56.3219C36.66 57.358 37.685 58.6221 38.378 59.5138L39.9572 58.2865C39.2495 57.3759 38.173 56.0457 37.0979 54.9325C36.5623 54.378 36.004 53.8531 35.475 53.4582C35.2103 53.2605 34.9329 53.0802 34.6528 52.9451C34.3817 52.8143 34.0472 52.6957 33.6838 52.6895L33.6495 54.6892ZM41.6198 59.5082C42.3082 58.6165 43.3264 57.3541 44.3246 56.3199C44.8256 55.8008 45.2984 55.3635 45.7048 55.062C46.1622 54.7226 46.361 54.689 46.3501 54.6892L46.3166 52.6895C45.6421 52.7008 44.9949 53.0983 44.5131 53.4558C43.9804 53.851 43.4209 54.3763 42.8855 54.9309C41.811 56.0443 40.7402 57.3747 40.0367 58.286L41.6198 59.5082ZM46.3501 54.6892C50.1013 54.6264 53.0098 54.3621 55.1494 53.7347L54.5867 51.8155C52.7199 52.3629 50.0383 52.6272 46.3166 52.6895L46.3501 54.6892ZM38.378 59.5138C39.1975 60.5682 40.8045 60.5643 41.6198 59.5082L40.0367 58.286C40.0317 58.2924 40.0279 58.295 40.0236 58.297C40.0179 58.2997 40.0085 58.3024 39.9967 58.3024C39.9848 58.3025 39.9755 58.2998 39.9699 58.2972C39.9658 58.2952 39.9621 58.2928 39.9572 58.2865L38.378 59.5138Z" fill="#2FC9B9"/>
<path d="M36 39.5259C36 42.816 36 44.461 37.0563 45.0263C38.1126 45.5916 39.4813 44.6791 42.2188 42.8541L43.0077 42.3282C45.2655 40.823 46.3944 40.0704 46.3944 39C46.3944 37.9296 45.2655 37.177 43.0077 35.6718L42.2188 35.1459C39.4813 33.3209 38.1126 32.4084 37.0563 32.9737C36 33.539 36 35.184 36 38.4741V39.5259Z" stroke="#2FC9B9" stroke-width="2"/>
</svg>
