<svg width="180" height="36" viewBox="0 0 180 36" fill="none" xmlns="http://www.w3.org/2000/svg">
<g clip-path="url(#clip0_1172_7191)">
<path d="M32.315 32.7848C31.5758 33.9971 30.3086 34.6823 28.8829 34.6823H28.5661C27.6156 34.6823 26.7708 34.0498 26.454 33.1537C26.2428 32.5739 26.0844 31.9941 25.8732 31.4143C25.0283 27.9883 24.9755 25.8799 25.7676 24.7731C26.5068 23.6662 28.1965 23.4553 30.467 23.1918C32.7903 22.8755 35.8 22.5066 38.8625 20.8726C39.1265 20.7145 39.4434 21.0307 39.285 21.2943L32.315 32.7848ZM9.61003 32.7848L1.90088 20.082C1.32006 19.1332 1.16165 17.9736 1.47847 16.9195C1.53127 16.6559 1.84808 16.6032 2.05929 16.8141C4.11858 19.3441 6.7587 21.0307 9.87404 21.9268C12.0917 22.5593 13.6758 23.7189 14.6263 25.3529C15.6295 27.1977 15.8407 29.7277 15.2599 32.8375C15.0487 33.8917 14.151 34.6823 13.0422 34.6823C11.6693 34.6823 10.3493 33.9444 9.61003 32.7848ZM15.7879 24.7204C14.6791 22.7701 12.831 21.3997 10.2437 20.6618C7.44513 19.8712 5.12183 18.3953 3.27375 16.1816C2.74572 15.6018 2.69292 14.7057 3.11534 14.0205L5.80826 9.48755C5.96667 9.22401 6.38909 9.22401 6.54749 9.48755C7.65634 11.2796 9.39882 12.7028 11.2469 14.2313C14.2566 16.7613 17.372 19.3441 17.372 23.7189C17.372 24.6676 17.2136 25.8799 16.9496 27.3031C16.8968 27.4612 16.7383 27.4612 16.6855 27.3031C16.5271 26.3543 16.2103 25.4583 15.7879 24.7204ZM9.61003 3.26794C9.92684 2.74085 10.3493 2.31918 10.8245 2.00293C11.0885 1.79209 11.5109 2.00293 11.5637 2.31918C11.9861 5.06003 12.8838 7.01025 14.415 8.48609C14.8903 8.96047 15.3655 9.38214 15.7879 9.80381C19.2729 13.1772 20.3289 14.1786 20.3289 25.6691V33.7335C20.3289 34.2606 19.9065 34.6296 19.4313 34.6296H17.0024C16.6855 34.6296 16.4215 34.3133 16.5271 33.9971C17.636 30.571 18.7448 26.407 18.7448 23.6662C18.7448 18.6589 15.2071 15.7599 12.1445 13.1772C10.4021 11.754 8.76519 10.3836 7.76195 8.74963C7.33953 8.01171 7.28673 7.11567 7.76195 6.37775L9.61003 3.26794ZM21.2794 1.31772C21.5962 1.31772 21.913 1.63397 21.8602 1.95022C21.4906 6.37775 20.3289 8.38067 19.4841 9.7511C19.2729 10.0673 19.1145 10.3836 18.956 10.6471C18.8504 10.858 18.5864 10.858 18.4808 10.6999C17.9528 10.1201 17.3192 9.48755 16.6327 8.85505C16.2103 8.43338 15.7879 8.01171 15.3127 7.53734C13.9398 6.16691 13.1478 4.37482 12.7782 1.73939C12.7254 1.52855 12.9366 1.31772 13.1478 1.31772C14.9431 1.31772 21.2794 1.31772 21.2794 1.31772ZM29.5693 1.37042C29.9389 1.42313 30.1501 1.79209 30.0445 2.10835C29.4109 4.2694 28.3021 6.1142 26.6652 7.53734C26.454 7.74817 26.2428 7.9063 26.0316 8.06442C23.9195 9.90922 22.1242 11.4378 21.1737 15.7072C21.1737 15.8126 21.0153 15.8126 20.9625 15.7072C20.7513 14.6003 20.4345 13.757 20.0649 12.9663C19.6953 12.0176 20.0121 11.4905 20.6457 10.3836C21.4906 8.90776 22.7578 6.79941 23.1802 2.16105C23.233 1.68668 23.6555 1.26501 24.1307 1.26501H28.8829C29.0941 1.31772 29.3581 1.37042 29.5693 1.37042ZM32.315 3.26794L34.744 7.22108C35.1664 7.85359 34.9024 8.74963 34.2159 9.06589C29.0413 11.5959 23.7611 16.0234 23.233 23.6662C23.0218 26.4597 24.1835 30.571 25.3451 34.0498C25.4507 34.366 25.2395 34.6823 24.8699 34.6823H22.5466C22.0186 34.6823 21.649 34.2606 21.649 33.7862V25.7218C21.649 13.7042 23.7611 11.8594 26.8764 9.11859C27.0876 8.96047 27.2988 8.74963 27.51 8.5388C29.2525 7.01025 30.5198 5.06003 31.2062 2.74085C31.259 2.47731 31.5758 2.4246 31.787 2.58272C31.9982 2.79356 32.1566 3.00439 32.315 3.26794ZM40.0242 15.9707C40.6578 17.0249 40.341 18.3953 39.285 19.0805C36.064 21.1362 32.8959 21.5578 30.2558 21.8741C27.8268 22.1903 25.7676 22.4539 24.6587 24.0351C24.6059 24.0878 24.5003 23.9297 24.5003 23.7716C25.0283 16.3397 30.5198 12.1757 35.536 9.85652C35.8528 9.69839 36.2752 9.85651 36.4864 10.1728L40.0242 15.9707ZM41.1858 15.2328L33.4239 2.58272C33.0015 1.8448 32.3678 1.26501 31.6814 0.843338H31.6286C30.7838 0.263543 29.8861 0 28.8829 0H13.0422C11.1941 0 9.45162 1.00146 8.50118 2.58272L0.792035 15.2328C-0.264012 16.9195 -0.264012 19.0278 0.792035 20.7672L8.50118 33.47C9.45162 35.0512 11.1941 36.0527 13.0422 36.0527H28.8829C30.731 36.0527 32.4734 35.0512 33.4239 33.47L41.1858 20.7672C42.1891 19.0805 42.1891 16.9722 41.1858 15.2328Z" fill="#B5A380"/>
<path d="M65.3164 17.6574C64.7884 17.0249 64.1019 16.4978 63.2043 16.0761C62.3066 15.7072 61.409 15.4963 60.5114 15.4963C59.2969 15.4963 58.1881 15.8126 57.1848 16.3924C56.1816 16.9722 55.3895 17.8155 54.8087 18.9224C54.2279 19.9766 53.9639 21.2416 53.9639 22.612C53.9639 23.9824 54.2279 25.2474 54.8087 26.3543C55.3895 27.4612 56.1816 28.3045 57.1848 28.937C58.1881 29.5695 59.2969 29.8331 60.5114 29.8331C61.5674 29.8331 62.5179 29.6223 63.3627 29.2006C64.2075 28.7789 64.8412 28.1991 65.3164 27.5139V29.6223H68.2205V10.9634H65.3164V17.6574ZM64.7355 25.1947C64.3659 25.9326 63.8379 26.4597 63.2043 26.8287C62.5707 27.1977 61.8842 27.4085 61.145 27.4085C60.4058 27.4085 59.7193 27.1977 59.0857 26.8287C58.4521 26.4597 57.924 25.8799 57.5016 25.1947C57.132 24.4568 56.9208 23.6135 56.9208 22.6647C56.9208 21.716 57.132 20.8726 57.5016 20.1874C57.8712 19.5022 58.3993 18.9751 59.0329 18.6061C59.6665 18.2372 60.353 18.0791 61.0922 18.0791C61.8314 18.0791 62.5178 18.2372 63.1515 18.6589C63.7851 19.0278 64.3131 19.5549 64.6827 20.2928C65.0524 20.978 65.2636 21.8214 65.2636 22.7701C65.2636 23.7189 65.158 24.4568 64.7355 25.1947Z" fill="#302C28"/>
<path d="M74.9265 17.7628V15.7599H72.0752V29.6223H74.9265V22.2958C74.9265 20.8726 75.2433 19.8712 75.7714 19.3441C76.3522 18.7643 77.197 18.5007 78.3587 18.5007H79.0979V15.549C78.1475 15.549 77.3026 15.7599 76.6162 16.1288C75.877 16.4978 75.3489 17.0776 74.9265 17.7628Z" fill="#302C28"/>
<path d="M91.1897 16.3924C90.1864 15.8126 88.972 15.549 87.7047 15.549C86.3318 15.549 85.1174 15.8653 84.0613 16.4451C83.0053 17.0249 82.2133 17.8682 81.6324 18.9751C81.0516 20.082 80.7876 21.2943 80.7876 22.7174C80.7876 24.1406 81.1044 25.4056 81.6852 26.4597C82.2661 27.5666 83.1109 28.3572 84.1669 28.9897C85.223 29.5695 86.3846 29.8858 87.7575 29.8858C89.3944 29.8858 90.7672 29.4641 91.8761 28.6735C92.9849 27.8829 93.7242 26.8287 94.1466 25.511H91.0313C90.3976 26.8287 89.2888 27.4612 87.7575 27.4612C86.7015 27.4612 85.751 27.1449 85.0118 26.4597C84.2726 25.7745 83.8501 24.8785 83.7973 23.7716H94.4106C94.4634 23.3499 94.5162 22.8755 94.5162 22.3485C94.5162 21.0307 94.2522 19.8184 93.6714 18.7643C93.0377 17.7628 92.2457 16.9195 91.1897 16.3924ZM83.7445 21.4524C83.9029 20.3982 84.3254 19.5022 85.0118 18.8697C85.6982 18.2372 86.5431 17.9209 87.5463 17.9209C88.6552 17.9209 89.5528 18.2372 90.292 18.8697C91.0313 19.5022 91.4009 20.3455 91.4537 21.3997H83.7445V21.4524Z" fill="#302C28"/>
<path d="M102.648 27.0395L98.7403 15.7599H95.625L100.905 29.6223H104.337L109.67 15.7599H106.608L102.648 27.0395Z" fill="#302C28"/>
<path d="M131.583 16.1816C130.739 15.7072 129.735 15.4963 128.627 15.4963C127.623 15.4963 126.62 15.7599 125.775 16.2343C124.878 16.7086 124.244 17.3938 123.822 18.2372C123.346 17.3411 122.66 16.6559 121.815 16.1816C120.917 15.7072 119.967 15.4963 118.858 15.4963C118.013 15.4963 117.274 15.6545 116.535 15.9707C115.796 16.287 115.215 16.7613 114.74 17.2884V15.7072H111.888V29.5695H114.74V21.8741C114.74 20.6091 115.056 19.6603 115.69 19.0278C116.324 18.3426 117.168 18.0264 118.277 18.0264C119.333 18.0264 120.178 18.3426 120.812 19.0278C121.445 19.713 121.762 20.6618 121.762 21.8741V29.6223H124.614V21.8741C124.614 20.6091 124.93 19.6603 125.564 19.0278C126.198 18.3426 127.042 18.0264 128.151 18.0264C129.26 18.0264 130.052 18.3426 130.686 19.0278C131.319 19.713 131.636 20.6618 131.636 21.8741V29.6223H134.488V21.4524C134.488 20.1874 134.224 19.1332 133.748 18.2372C133.168 17.3411 132.481 16.6559 131.583 16.1816Z" fill="#302C28"/>
<path d="M148.48 17.7628C148.005 17.1303 147.318 16.6032 146.526 16.1815C145.734 15.7599 144.731 15.549 143.675 15.549C142.46 15.549 141.352 15.8653 140.348 16.4451C139.345 17.0249 138.553 17.8682 137.972 18.9751C137.391 20.0293 137.127 21.2943 137.127 22.6647C137.127 24.0351 137.391 25.3001 137.972 26.407C138.553 27.5139 139.345 28.3572 140.348 28.9897C141.352 29.6223 142.408 29.8858 143.622 29.8858C144.678 29.8858 145.681 29.675 146.473 29.2533C147.318 28.8316 148.005 28.2518 148.48 27.6193V29.675H151.384V15.7599H148.48V17.7628ZM147.846 25.1947C147.477 25.9326 146.949 26.4597 146.315 26.8287C145.681 27.1977 144.995 27.4085 144.256 27.4085C143.517 27.4085 142.83 27.1977 142.196 26.8287C141.563 26.4597 141.035 25.8799 140.612 25.1947C140.243 24.4568 140.032 23.6135 140.032 22.6647C140.032 21.716 140.243 20.8726 140.612 20.1874C140.982 19.5022 141.51 18.9751 142.144 18.6061C142.777 18.2372 143.464 18.0791 144.203 18.0791C144.942 18.0791 145.629 18.2372 146.262 18.6589C146.896 19.0278 147.424 19.5549 147.794 20.2928C148.163 20.978 148.374 21.8214 148.374 22.7701C148.374 23.7189 148.269 24.4568 147.846 25.1947Z" fill="#302C28"/>
<path d="M163.107 22.4012C162.473 22.1376 161.628 21.8741 160.625 21.5578C159.886 21.347 159.305 21.1362 158.935 21.0307C158.566 20.8726 158.196 20.7145 157.932 20.4509C157.668 20.1874 157.509 19.8712 157.509 19.5022C157.509 19.0278 157.721 18.6589 158.09 18.3426C158.513 18.0791 159.094 17.9209 159.833 17.9209C160.625 17.9209 161.206 18.1318 161.681 18.5007C162.156 18.8697 162.367 19.3441 162.42 19.9766H165.271C165.219 18.6061 164.691 17.4993 163.74 16.7086C162.79 15.918 161.522 15.4963 159.938 15.4963C158.882 15.4963 157.932 15.6545 157.14 16.0234C156.348 16.3924 155.714 16.8668 155.239 17.4466C154.764 18.0264 154.605 18.7116 154.605 19.4495C154.605 20.3455 154.869 21.0835 155.345 21.6632C155.82 22.243 156.401 22.612 157.034 22.8755C157.668 23.1391 158.566 23.4026 159.569 23.7189C160.625 24.0351 161.417 24.2987 161.945 24.5622C162.42 24.8258 162.684 25.1947 162.684 25.7218C162.684 26.1962 162.473 26.6179 161.998 26.9341C161.575 27.2504 160.942 27.4085 160.097 27.4085C159.305 27.4085 158.671 27.1977 158.143 26.8287C157.615 26.4597 157.351 25.9326 157.298 25.3529H154.341C154.394 26.1962 154.658 26.9341 155.133 27.6193C155.661 28.3045 156.348 28.8316 157.193 29.2533C158.037 29.6223 159.041 29.8331 160.15 29.8331C161.206 29.8331 162.156 29.675 162.948 29.306C163.74 28.937 164.374 28.4627 164.796 27.8302C165.219 27.1977 165.43 26.5124 165.43 25.7218C165.43 24.8258 165.166 24.1406 164.691 23.5608C164.321 23.0864 163.74 22.6647 163.107 22.4012Z" fill="#302C28"/>
<path d="M178.261 23.6135C177.785 23.0864 177.204 22.6647 176.571 22.4012C175.937 22.1376 175.092 21.8741 174.089 21.5578C173.35 21.347 172.769 21.1362 172.399 21.0307C172.03 20.8726 171.66 20.7145 171.396 20.4509C171.132 20.1874 170.974 19.8712 170.974 19.5022C170.974 19.0278 171.185 18.6589 171.555 18.3426C171.977 18.0791 172.558 17.9209 173.297 17.9209C174.089 17.9209 174.67 18.1318 175.145 18.5007C175.62 18.8697 175.832 19.3441 175.884 19.9766H178.736C178.683 18.6061 178.155 17.4993 177.204 16.7086C176.254 15.918 174.987 15.4963 173.403 15.4963C172.347 15.4963 171.396 15.6545 170.604 16.0234C169.812 16.3924 169.179 16.8668 168.703 17.4466C168.281 18.0791 168.07 18.7116 168.07 19.4495C168.07 20.3455 168.334 21.0835 168.809 21.6632C169.284 22.243 169.865 22.612 170.499 22.8755C171.132 23.1391 172.03 23.4026 173.033 23.7189C174.089 24.0351 174.881 24.2987 175.409 24.5622C175.884 24.8258 176.148 25.1947 176.148 25.7218C176.148 26.1962 175.937 26.6179 175.462 26.9341C175.04 27.2504 174.406 27.4085 173.561 27.4085C172.769 27.4085 172.135 27.1977 171.607 26.8287C171.079 26.4597 170.815 25.9326 170.763 25.3529H167.806C167.858 26.1962 168.122 26.9341 168.598 27.6193C169.126 28.3045 169.812 28.8316 170.657 29.2533C171.502 29.6223 172.505 29.8331 173.614 29.8331C174.67 29.8331 175.62 29.675 176.412 29.306C177.204 28.937 177.838 28.4627 178.261 27.8302C178.683 27.1977 178.894 26.5124 178.894 25.7218C179 24.8785 178.736 24.1406 178.261 23.6135Z" fill="#302C28"/>
</g>
<defs>
<clipPath id="clip0_1172_7191">
<rect width="180" height="36" fill="white"/>
</clipPath>
</defs>
</svg>
