<svg width="179" height="36" viewBox="0 0 179 36" fill="none" xmlns="http://www.w3.org/2000/svg">
<g clip-path="url(#clip0_1082_4561)">
<path d="M32.315 32.7848C31.5758 33.9971 30.3086 34.6823 28.8829 34.6823H28.5661C27.6156 34.6823 26.7708 34.0498 26.454 33.1537C26.2428 32.5739 26.0844 31.9941 25.8732 31.4143C25.0283 27.9883 24.9755 25.8799 25.7676 24.7731C26.5068 23.6662 28.1965 23.4553 30.467 23.1918C32.7903 22.8755 35.8 22.5066 38.8625 20.8726C39.1265 20.7145 39.4434 21.0307 39.285 21.2943L32.315 32.7848ZM9.61003 32.7848L1.90088 20.082C1.32006 19.1332 1.16165 17.9736 1.47847 16.9195C1.53127 16.6559 1.84808 16.6032 2.05929 16.8141C4.11858 19.3441 6.7587 21.0307 9.87404 21.9268C12.0917 22.5593 13.6758 23.7189 14.6263 25.3529C15.6295 27.1977 15.8407 29.7277 15.2599 32.8375C15.0487 33.8917 14.151 34.6823 13.0422 34.6823C11.6693 34.6823 10.3493 33.9444 9.61003 32.7848ZM15.7879 24.7204C14.6791 22.7701 12.831 21.3997 10.2437 20.6618C7.44513 19.8712 5.12183 18.3953 3.27375 16.1816C2.74572 15.6018 2.69292 14.7057 3.11534 14.0205L5.80826 9.48755C5.96667 9.22401 6.38909 9.22401 6.54749 9.48755C7.65634 11.2796 9.39882 12.7028 11.2469 14.2313C14.2566 16.7613 17.372 19.3441 17.372 23.7189C17.372 24.6676 17.2136 25.8799 16.9496 27.3031C16.8968 27.4612 16.7383 27.4612 16.6855 27.3031C16.5271 26.3543 16.2103 25.4583 15.7879 24.7204ZM9.61003 3.26794C9.92684 2.74085 10.3493 2.31918 10.8245 2.00293C11.0885 1.79209 11.5109 2.00293 11.5637 2.31918C11.9861 5.06003 12.8838 7.01025 14.415 8.48609C14.8903 8.96047 15.3655 9.38214 15.7879 9.80381C19.2729 13.1772 20.3289 14.1786 20.3289 25.6691V33.7335C20.3289 34.2606 19.9065 34.6296 19.4313 34.6296H17.0024C16.6855 34.6296 16.4215 34.3133 16.5271 33.9971C17.636 30.571 18.7448 26.407 18.7448 23.6662C18.7448 18.6589 15.2071 15.7599 12.1445 13.1772C10.4021 11.754 8.76519 10.3836 7.76195 8.74963C7.33953 8.01171 7.28673 7.11567 7.76195 6.37775L9.61003 3.26794ZM21.2794 1.31772C21.5962 1.31772 21.913 1.63397 21.8602 1.95022C21.4906 6.37775 20.3289 8.38067 19.4841 9.7511C19.2729 10.0673 19.1145 10.3836 18.956 10.6471C18.8504 10.858 18.5864 10.858 18.4808 10.6999C17.9528 10.1201 17.3192 9.48755 16.6327 8.85505C16.2103 8.43338 15.7879 8.01171 15.3127 7.53734C13.9398 6.16691 13.1478 4.37482 12.7782 1.73939C12.7254 1.52855 12.9366 1.31772 13.1478 1.31772C14.9431 1.31772 21.2794 1.31772 21.2794 1.31772ZM29.5693 1.37042C29.9389 1.42313 30.1501 1.79209 30.0445 2.10835C29.4109 4.2694 28.3021 6.1142 26.6652 7.53734C26.454 7.74817 26.2428 7.9063 26.0316 8.06442C23.9195 9.90922 22.1242 11.4378 21.1737 15.7072C21.1737 15.8126 21.0153 15.8126 20.9625 15.7072C20.7513 14.6003 20.4345 13.757 20.0649 12.9663C19.6953 12.0176 20.0121 11.4905 20.6457 10.3836C21.4906 8.90776 22.7578 6.79941 23.1802 2.16105C23.233 1.68668 23.6555 1.26501 24.1307 1.26501H28.8829C29.0941 1.31772 29.3581 1.37042 29.5693 1.37042ZM32.315 3.26794L34.744 7.22108C35.1664 7.85359 34.9024 8.74963 34.2159 9.06589C29.0413 11.5959 23.7611 16.0234 23.233 23.6662C23.0218 26.4597 24.1835 30.571 25.3451 34.0498C25.4507 34.366 25.2395 34.6823 24.8699 34.6823H22.5466C22.0186 34.6823 21.649 34.2606 21.649 33.7862V25.7218C21.649 13.7042 23.7611 11.8594 26.8764 9.11859C27.0876 8.96047 27.2988 8.74963 27.51 8.5388C29.2525 7.01025 30.5198 5.06003 31.2062 2.74085C31.259 2.47731 31.5758 2.4246 31.787 2.58272C31.9982 2.79356 32.1566 3.00439 32.315 3.26794ZM40.0242 15.9707C40.6578 17.0249 40.341 18.3953 39.285 19.0805C36.064 21.1362 32.8959 21.5578 30.2558 21.8741C27.8268 22.1903 25.7676 22.4539 24.6587 24.0351C24.6059 24.0878 24.5003 23.9297 24.5003 23.7716C25.0283 16.3397 30.5198 12.1757 35.536 9.85652C35.8528 9.69839 36.2752 9.85651 36.4864 10.1728L40.0242 15.9707ZM41.1858 15.2328L33.4239 2.58272C33.0015 1.8448 32.3678 1.26501 31.6814 0.843338H31.6286C30.7838 0.263543 29.8861 0 28.8829 0H13.0422C11.1941 0 9.45162 1.00146 8.50118 2.58272L0.792035 15.2328C-0.264012 16.9195 -0.264012 19.0278 0.792035 20.7672L8.50118 33.47C9.45162 35.0512 11.1941 36.0527 13.0422 36.0527H28.8829C30.731 36.0527 32.4734 35.0512 33.4239 33.47L41.1858 20.7672C42.1891 19.0805 42.1891 16.9722 41.1858 15.2328Z" fill="#B5A380"/>
<path d="M65.3174 17.6569C64.7893 17.0244 64.1029 16.4973 63.2053 16.0756C62.3076 15.7067 61.41 15.4958 60.5123 15.4958C59.2979 15.4958 58.189 15.8121 57.1858 16.3919C56.1825 16.9717 55.3905 17.815 54.8097 18.9219C54.2289 19.9761 53.9648 21.2411 53.9648 22.6115C53.9648 23.9819 54.2289 25.2469 54.8097 26.3538C55.3905 27.4607 56.1825 28.304 57.1858 28.9365C58.189 29.569 59.2979 29.8326 60.5123 29.8326C61.5684 29.8326 62.5188 29.6217 63.3637 29.2001C64.2085 28.7784 64.8421 28.1986 65.3174 27.5134V29.6217H68.2215V10.9629H65.3174V17.6569ZM64.7365 25.1942C64.3669 25.9321 63.8389 26.4592 63.2053 26.8282C62.5716 27.1972 61.8852 27.408 61.146 27.408C60.4067 27.408 59.7203 27.1972 59.0867 26.8282C58.453 26.4592 57.925 25.8794 57.5026 25.1942C57.133 24.4563 56.9218 23.613 56.9218 22.6642C56.9218 21.7155 57.133 20.8721 57.5026 20.1869C57.8722 19.5017 58.4002 18.9746 59.0339 18.6056C59.6675 18.2367 60.3539 18.0786 61.0932 18.0786C61.8324 18.0786 62.5188 18.2367 63.1525 18.6584C63.7861 19.0273 64.3141 19.5544 64.6837 20.2923C65.0533 20.9775 65.2645 21.8209 65.2645 22.7696C65.2645 23.7184 65.1589 24.4563 64.7365 25.1942Z" fill="white"/>
<path d="M74.9275 17.7626V15.7597H72.0762V29.622H74.9275V22.2955C74.9275 20.8724 75.2443 19.8709 75.7723 19.3439C76.3532 18.7641 77.198 18.5005 78.3596 18.5005H79.0989V15.5488C78.1484 15.5488 77.3036 15.7597 76.6172 16.1286C75.8779 16.4976 75.3499 17.0774 74.9275 17.7626Z" fill="white"/>
<path d="M91.1911 16.3922C90.1879 15.8124 88.9734 15.5488 87.7062 15.5488C86.3333 15.5488 85.1189 15.8651 84.0628 16.4449C83.0068 17.0247 82.2147 17.868 81.6339 18.9749C81.0531 20.0818 80.7891 21.2941 80.7891 22.7172C80.7891 24.1403 81.1059 25.4053 81.6867 26.4595C82.2675 27.5664 83.1124 28.357 84.1684 28.9895C85.2245 29.5693 86.3861 29.8856 87.759 29.8856C89.3958 29.8856 90.7687 29.4639 91.8776 28.6733C92.9864 27.8827 93.7256 26.8285 94.1481 25.5108H91.0327C90.3991 26.8285 89.2902 27.461 87.759 27.461C86.7029 27.461 85.7525 27.1447 85.0133 26.4595C84.274 25.7743 83.8516 24.8783 83.7988 23.7714H94.4121C94.4649 23.3497 94.5177 22.8753 94.5177 22.3482C94.5177 21.0305 94.2537 19.8182 93.6728 18.7641C93.0392 17.7626 92.2472 16.9193 91.1911 16.3922ZM83.746 21.4522C83.9044 20.398 84.3268 19.502 85.0133 18.8695C85.6997 18.237 86.5445 17.9207 87.5478 17.9207C88.6566 17.9207 89.5543 18.237 90.2935 18.8695C91.0327 19.502 91.4023 20.3453 91.4551 21.3995H83.746V21.4522Z" fill="white"/>
<path d="M102.648 27.0394L98.7403 15.7598H95.625L100.905 29.6221H104.337L109.67 15.7598H106.608L102.648 27.0394Z" fill="white"/>
<path d="M131.584 16.1813C130.739 15.7069 129.736 15.4961 128.627 15.4961C127.624 15.4961 126.621 15.7596 125.776 16.234C124.878 16.7084 124.244 17.3936 123.822 18.2369C123.347 17.3409 122.66 16.6557 121.816 16.1813C120.918 15.7069 119.967 15.4961 118.859 15.4961C118.014 15.4961 117.275 15.6542 116.535 15.9705C115.796 16.2867 115.215 16.7611 114.74 17.2882V15.7069H111.889V29.5693H114.74V21.8738C114.74 20.6088 115.057 19.6601 115.69 19.0276C116.324 18.3424 117.169 18.0261 118.278 18.0261C119.334 18.0261 120.179 18.3424 120.812 19.0276C121.446 19.7128 121.763 20.6615 121.763 21.8738V29.622H124.614V21.8738C124.614 20.6088 124.931 19.6601 125.564 19.0276C126.198 18.3424 127.043 18.0261 128.152 18.0261C129.261 18.0261 130.053 18.3424 130.686 19.0276C131.32 19.7128 131.637 20.6615 131.637 21.8738V29.622H134.488V21.4522C134.488 20.1872 134.224 19.133 133.749 18.2369C133.168 17.3409 132.482 16.6557 131.584 16.1813Z" fill="white"/>
<path d="M148.481 17.7626C148.006 17.1301 147.32 16.603 146.528 16.1813C145.736 15.7597 144.732 15.5488 143.676 15.5488C142.462 15.5488 141.353 15.8651 140.35 16.4449C139.347 17.0247 138.555 17.868 137.974 18.9749C137.393 20.0291 137.129 21.2941 137.129 22.6645C137.129 24.0349 137.393 25.2999 137.974 26.4068C138.555 27.5137 139.347 28.357 140.35 28.9895C141.353 29.622 142.409 29.8856 143.624 29.8856C144.68 29.8856 145.683 29.6747 146.475 29.2531C147.32 28.8314 148.006 28.2516 148.481 27.6191V29.6747H151.386V15.7597H148.481V17.7626ZM147.848 25.1945C147.478 25.9324 146.95 26.4595 146.317 26.8285C145.683 27.1974 144.996 27.4083 144.257 27.4083C143.518 27.4083 142.832 27.1974 142.198 26.8285C141.564 26.4595 141.036 25.8797 140.614 25.1945C140.244 24.4566 140.033 23.6132 140.033 22.6645C140.033 21.7157 140.244 20.8724 140.614 20.1872C140.983 19.502 141.512 18.9749 142.145 18.6059C142.779 18.237 143.465 18.0788 144.204 18.0788C144.944 18.0788 145.63 18.237 146.264 18.6586C146.897 19.0276 147.425 19.5547 147.795 20.2926C148.165 20.9778 148.376 21.8212 148.376 22.7699C148.376 23.7187 148.27 24.4566 147.848 25.1945Z" fill="white"/>
<path d="M163.107 22.4009C162.473 22.1374 161.629 21.8738 160.625 21.5576C159.886 21.3468 159.305 21.1359 158.936 21.0305C158.566 20.8724 158.196 20.7142 157.932 20.4507C157.668 20.1872 157.51 19.8709 157.51 19.502C157.51 19.0276 157.721 18.6586 158.091 18.3424C158.513 18.0788 159.094 17.9207 159.833 17.9207C160.625 17.9207 161.206 18.1315 161.681 18.5005C162.157 18.8694 162.368 19.3438 162.421 19.9763H165.272C165.219 18.6059 164.691 17.499 163.741 16.7084C162.79 15.9178 161.523 15.4961 159.939 15.4961C158.883 15.4961 157.932 15.6542 157.14 16.0232C156.348 16.3921 155.715 16.8665 155.239 17.4463C154.764 18.0261 154.606 18.7113 154.606 19.4492C154.606 20.3453 154.87 21.0832 155.345 21.663C155.82 22.2428 156.401 22.6118 157.035 22.8753C157.668 23.1388 158.566 23.4024 159.569 23.7186C160.625 24.0349 161.417 24.2984 161.945 24.562C162.421 24.8255 162.685 25.1945 162.685 25.7216C162.685 26.1959 162.473 26.6176 161.998 26.9339C161.576 27.2501 160.942 27.4082 160.097 27.4082C159.305 27.4082 158.672 27.1974 158.144 26.8285C157.616 26.4595 157.352 25.9324 157.299 25.3526H154.342C154.395 26.1959 154.659 26.9339 155.134 27.6191C155.662 28.3043 156.348 28.8314 157.193 29.253C158.038 29.622 159.041 29.8328 160.15 29.8328C161.206 29.8328 162.157 29.6747 162.949 29.3058C163.741 28.9368 164.374 28.4624 164.797 27.8299C165.219 27.1974 165.43 26.5122 165.43 25.7216C165.43 24.8255 165.166 24.1403 164.691 23.5605C164.321 23.0861 163.741 22.6645 163.107 22.4009Z" fill="white"/>
<path d="M178.262 23.6132C177.786 23.0861 177.205 22.6645 176.572 22.4009C175.938 22.1374 175.093 21.8738 174.09 21.5576C173.351 21.3468 172.77 21.1359 172.4 21.0305C172.031 20.8724 171.661 20.7142 171.397 20.4507C171.133 20.1872 170.975 19.8709 170.975 19.502C170.975 19.0276 171.186 18.6586 171.556 18.3424C171.978 18.0788 172.559 17.9207 173.298 17.9207C174.09 17.9207 174.671 18.1315 175.146 18.5005C175.621 18.8694 175.833 19.3438 175.885 19.9763H178.737C178.684 18.6059 178.156 17.499 177.205 16.7084C176.255 15.9178 174.988 15.4961 173.404 15.4961C172.348 15.4961 171.397 15.6542 170.605 16.0232C169.813 16.3921 169.18 16.8665 168.704 17.4463C168.282 18.0788 168.071 18.7113 168.071 19.4492C168.071 20.3453 168.335 21.0832 168.81 21.663C169.285 22.2428 169.866 22.6118 170.5 22.8753C171.133 23.1388 172.031 23.4024 173.034 23.7186C174.09 24.0349 174.882 24.2984 175.41 24.562C175.885 24.8255 176.149 25.1945 176.149 25.7216C176.149 26.1959 175.938 26.6176 175.463 26.9339C175.041 27.2501 174.407 27.4082 173.562 27.4082C172.77 27.4082 172.136 27.1974 171.608 26.8285C171.08 26.4595 170.816 25.9324 170.764 25.3526H167.807C167.859 26.1959 168.123 26.9339 168.599 27.6191C169.127 28.3043 169.813 28.8314 170.658 29.253C171.503 29.622 172.506 29.8328 173.615 29.8328C174.671 29.8328 175.621 29.6747 176.413 29.3058C177.205 28.9368 177.839 28.4624 178.262 27.8299C178.684 27.1974 178.895 26.5122 178.895 25.7216C179.001 24.8782 178.737 24.1403 178.262 23.6132Z" fill="white"/>
</g>
<defs>
<clipPath id="clip0_1082_4561">
<rect width="179" height="36" fill="white"/>
</clipPath>
</defs>
</svg>
